#N canvas 628 25 1176 974 10;
#X obj 57 490 tgl 30 1 invertPlayback invertPlayback empty 17 7 0 10
-262144 -1 -1 0 1;
#X text 94 497 REVERSE;
#X obj 27 708 hsl 602 167 0 1 0 0 empty playBar empty -2 -8 0 10 -262144
-1 -1 0 1;
#N canvas 0 50 450 250 (subpatch) 0;
#X array theLoop 352800 float 2;
#X coords 0 1 352800 -1 600 160 1 0 0;
#X restore 27 712 graph;
#X obj 26 708 hsl 602 167 0 1 0 0 empty playBar empty -2 -8 0 10 -262144
-1 -1 0 1;
#N canvas 846 147 976 768 samples 1;
#X obj 49 245 vu 15 120 empty empty -1 -8 0 10 -66577 -1 1 0;
#N canvas 2 119 450 300 Meter 0;
#X obj 83 93 env~;
#X obj 83 115 - 100;
#X obj 83 139 outlet;
#X text 154 85 Prepares Signal for VU Meter;
#X obj 83 69 inlet~;
#X connect 0 0 1 0;
#X connect 1 0 2 0;
#X connect 4 0 0 0;
#X restore 48 219 pd Meter;
#X obj 122 245 vu 15 120 empty empty -1 -8 0 10 -66577 -1 1 0;
#N canvas 2 119 450 300 Meter 0;
#X obj 83 93 env~;
#X obj 83 115 - 100;
#X obj 83 139 outlet;
#X text 154 85 Prepares Signal for VU Meter;
#X obj 83 69 inlet~;
#X connect 0 0 1 0;
#X connect 1 0 2 0;
#X connect 4 0 0 0;
#X restore 121 219 pd Meter;
#X obj 194 245 vu 15 120 empty empty -1 -8 0 10 -66577 -1 1 0;
#N canvas 2 119 450 300 Meter 0;
#X obj 83 93 env~;
#X obj 83 115 - 100;
#X obj 83 139 outlet;
#X text 154 85 Prepares Signal for VU Meter;
#X obj 83 69 inlet~;
#X connect 0 0 1 0;
#X connect 1 0 2 0;
#X connect 4 0 0 0;
#X restore 193 219 pd Meter;
#X obj 267 245 vu 15 120 empty empty -1 -8 0 10 -66577 -1 1 0;
#N canvas 2 119 450 300 Meter 0;
#X obj 83 93 env~;
#X obj 83 115 - 100;
#X obj 83 139 outlet;
#X text 154 85 Prepares Signal for VU Meter;
#X obj 83 69 inlet~;
#X connect 0 0 1 0;
#X connect 1 0 2 0;
#X connect 4 0 0 0;
#X restore 266 219 pd Meter;
#X obj 340 245 vu 15 120 empty empty -1 -8 0 10 -66577 -1 1 0;
#N canvas 2 119 450 300 Meter 0;
#X obj 83 93 env~;
#X obj 83 115 - 100;
#X obj 83 139 outlet;
#X text 154 85 Prepares Signal for VU Meter;
#X obj 83 69 inlet~;
#X connect 0 0 1 0;
#X connect 1 0 2 0;
#X connect 4 0 0 0;
#X restore 339 219 pd Meter;
#X obj 413 245 vu 15 120 empty empty -1 -8 0 10 -66577 -1 1 0;
#N canvas 2 119 450 300 Meter 0;
#X obj 83 93 env~;
#X obj 83 115 - 100;
#X obj 83 139 outlet;
#X text 154 85 Prepares Signal for VU Meter;
#X obj 83 69 inlet~;
#X connect 0 0 1 0;
#X connect 1 0 2 0;
#X connect 4 0 0 0;
#X restore 412 219 pd Meter;
#X obj 491 245 vu 15 120 empty empty -1 -8 0 10 -66577 -1 1 0;
#N canvas 2 119 450 300 Meter 0;
#X obj 83 93 env~;
#X obj 83 115 - 100;
#X obj 83 139 outlet;
#X text 154 85 Prepares Signal for VU Meter;
#X obj 83 69 inlet~;
#X connect 0 0 1 0;
#X connect 1 0 2 0;
#X connect 4 0 0 0;
#X restore 490 219 pd Meter;
#X obj 564 245 vu 15 120 empty empty -1 -8 0 10 -66577 -1 1 0;
#N canvas 2 119 450 300 Meter 0;
#X obj 83 93 env~;
#X obj 83 115 - 100;
#X obj 83 139 outlet;
#X text 154 85 Prepares Signal for VU Meter;
#X obj 83 69 inlet~;
#X connect 0 0 1 0;
#X connect 1 0 2 0;
#X connect 4 0 0 0;
#X restore 563 219 pd Meter;
#X obj 636 245 vu 15 120 empty empty -1 -8 0 10 -66577 -1 1 0;
#N canvas 2 119 450 300 Meter 0;
#X obj 83 93 env~;
#X obj 83 115 - 100;
#X obj 83 139 outlet;
#X text 154 85 Prepares Signal for VU Meter;
#X obj 83 69 inlet~;
#X connect 0 0 1 0;
#X connect 1 0 2 0;
#X connect 4 0 0 0;
#X restore 635 219 pd Meter;
#X obj 709 245 vu 15 120 empty empty -1 -8 0 10 -66577 -1 1 0;
#N canvas 2 119 450 300 Meter 0;
#X obj 83 93 env~;
#X obj 83 115 - 100;
#X obj 83 139 outlet;
#X text 154 85 Prepares Signal for VU Meter;
#X obj 83 69 inlet~;
#X connect 0 0 1 0;
#X connect 1 0 2 0;
#X connect 4 0 0 0;
#X restore 708 219 pd Meter;
#X obj 782 245 vu 15 120 empty empty -1 -8 0 10 -66577 -1 1 0;
#N canvas 2 119 450 300 Meter 0;
#X obj 83 93 env~;
#X obj 83 115 - 100;
#X obj 83 139 outlet;
#X text 154 85 Prepares Signal for VU Meter;
#X obj 83 69 inlet~;
#X connect 0 0 1 0;
#X connect 1 0 2 0;
#X connect 4 0 0 0;
#X restore 781 219 pd Meter;
#X obj 855 245 vu 15 120 empty empty -1 -8 0 10 -66577 -1 1 0;
#N canvas 2 119 450 300 Meter 0;
#X obj 83 93 env~;
#X obj 83 115 - 100;
#X obj 83 139 outlet;
#X text 154 85 Prepares Signal for VU Meter;
#X obj 83 69 inlet~;
#X connect 0 0 1 0;
#X connect 1 0 2 0;
#X connect 4 0 0 0;
#X restore 854 219 pd Meter;
#N canvas 783 298 1036 685 Sample4 1;
#X obj 418 535 outlet~;
#X text 417 19 1:PLAY;
#X obj 315 565 hsl 400 160 0 1 0 0 empty empty empty -2 -8 0 10 -262144
-1 -1 0 1;
#X obj 585 124 bng 15 250 50 0 empty empty empty 17 7 0 10 -262144
-1 -1;
#X obj 420 42 inlet;
#X obj 420 124 bng 15 250 50 0 empty empty empty 17 7 0 10 -262144
-1 -1;
#X text 368 128 START;
#X obj 420 476 tabread4~ channel4;
#N canvas 0 50 450 250 (subpatch) 0;
#X array channel4 411034 float 2;
#X coords 0 1 411034 -1 400 160 1 0 0;
#X restore 317 565 graph;
#X text 472 123 STOP AND RESET;
#X obj 419 501 hip~ 5;
#X obj 60 198 soundfiler;
#X floatatom 188 220 10 0 0 0 - - -, f 10;
#X floatatom 58 322 10 0 0 0 - - -, f 10;
#X obj 99 368 *;
#X text 155 349 Playback Speed;
#X floatatom 158 328 10 0 1 0 - - -, f 10;
#X obj 137 266 r playbackSpeed;
#X obj 420 445 *~;
#X text 185 200 Num Samples;
#X obj 59 237 expr 44100 / $f1;
#X obj 167 300 hsl 128 15 0 2 0 0 empty empty empty -2 -8 0 10 -262144
-1 -1 6350 1;
#N canvas 834 421 471 558 phaser 0;
#X obj 261 37 inlet;
#X obj 66 52 inlet;
#X obj 217 482 outlet~;
#X obj 378 37 inlet;
#X text 243 16 Play BANG;
#X text 370 15 Stop BANG;
#X text 111 51 Phasor Rate;
#X text 45 16 Playback Speed;
#X msg 280 264 0;
#X obj 187 289 phasor~;
#X msg 219 165 1;
#X msg 262 166 0;
#X floatatom 240 197 5 0 0 0 - - -, f 5;
#X text 215 219 Play Request;
#X obj 187 250 spigot;
#X obj 186 202 bng 15 250 50 0 empty empty empty 17 7 0 10 -262144
-1 -1;
#X floatatom 165 227 5 0 0 0 - - -, f 5;
#X connect 0 0 10 0;
#X connect 1 0 16 0;
#X connect 3 0 11 0;
#X connect 3 0 8 0;
#X connect 8 0 9 1;
#X connect 8 0 9 0;
#X connect 9 0 2 0;
#X connect 10 0 12 0;
#X connect 10 0 15 0;
#X connect 11 0 12 0;
#X connect 12 0 14 1;
#X connect 14 0 9 0;
#X connect 15 0 16 0;
#X connect 16 0 14 0;
#X restore 489 337 pd phaser;
#X obj 589 35 inlet;
#X obj 93 286 bng 15 250 50 0 empty empty empty 17 7 0 10 -262144 -1
-1;
#X obj 59 130 del;
#X obj 77 60 r loopLoadDelay;
#X obj 77 98 * 3;
#N canvas 230 138 450 300 inverter~ 0;
#X obj 91 133 *~;
#X obj 204 66 r invertPlayback;
#X obj 204 90 select 0 1;
#X msg 237 116 -1;
#X msg 204 116 1;
#X obj 91 173 +~;
#X msg 204 156 0;
#X obj 93 37 inlet~;
#X obj 92 220 outlet~;
#X text 101 240 1 - 0;
#X text 102 16 0 - 1;
#X obj 9 196 snapshot~;
#X obj 9 150 tgl 15 0 empty empty empty 17 7 0 10 -262144 -1 -1 0 1
;
#X floatatom 9 221 10 0 0 0 - - -, f 10;
#X obj 9 171 metro 50;
#X obj 216 228 snapshot~;
#X obj 216 182 tgl 15 0 empty empty empty 17 7 0 10 -262144 -1 -1 0
1;
#X floatatom 216 253 10 0 0 0 - - -, f 10;
#X obj 216 203 metro 50;
#X msg 237 156 1;
#X connect 0 0 11 0;
#X connect 0 0 5 0;
#X connect 1 0 2 0;
#X connect 2 0 4 0;
#X connect 2 0 6 0;
#X connect 2 1 3 0;
#X connect 2 1 19 0;
#X connect 3 0 0 1;
#X connect 4 0 0 1;
#X connect 5 0 15 0;
#X connect 5 0 8 0;
#X connect 6 0 5 1;
#X connect 7 0 0 0;
#X connect 11 0 13 0;
#X connect 12 0 14 0;
#X connect 14 0 11 0;
#X connect 15 0 17 0;
#X connect 16 0 18 0;
#X connect 18 0 15 0;
#X connect 19 0 5 1;
#X restore 488 379 pd inverter~;
#X obj 663 101 r stop_4;
#X msg 59 161 read -resize bank2/04.wav channel4;
#X obj 59 38 r loadBank2;
#X connect 3 0 22 2;
#X connect 4 0 5 0;
#X connect 5 0 22 1;
#X connect 7 0 10 0;
#X connect 10 0 0 0;
#X connect 11 0 12 0;
#X connect 11 0 20 0;
#X connect 12 0 18 1;
#X connect 13 0 14 1;
#X connect 14 0 22 0;
#X connect 16 0 14 0;
#X connect 17 0 21 0;
#X connect 18 0 7 0;
#X connect 20 0 13 0;
#X connect 20 0 24 0;
#X connect 21 0 16 0;
#X connect 22 0 28 0;
#X connect 23 0 3 0;
#X connect 24 0 16 0;
#X connect 25 0 30 0;
#X connect 26 0 27 0;
#X connect 27 0 25 1;
#X connect 28 0 18 0;
#X connect 29 0 3 0;
#X connect 30 0 11 0;
#X connect 31 0 25 0;
#X restore 267 185 pd Sample4;
#X obj 446 499 outlet~;
#X obj 48 128 r on_1;
#X obj 48 157 r off_1;
#X obj 122 157 r off_2;
#X obj 122 128 r on_2;
#X obj 201 128 r on_3;
#X obj 201 157 r off_3;
#X obj 271 128 r on_4;
#X obj 271 157 r off_4;
#X obj 348 128 r on_5;
#X obj 348 157 r off_5;
#X obj 421 128 r on_6;
#X obj 421 157 r off_6;
#X obj 503 128 r on_7;
#X obj 503 157 r off_7;
#X obj 568 128 r on_8;
#X obj 568 157 r off_8;
#X obj 644 128 r on_9;
#X obj 644 157 r off_9;
#X obj 720 128 r on_10;
#X obj 720 157 r off_10;
#X obj 787 128 r on_11;
#X obj 787 157 r off_11;
#X obj 869 128 r on_12;
#X obj 869 157 r off_12;
#N canvas 783 298 1036 685 Sample3 1;
#X obj 418 535 outlet~;
#X text 417 19 1:PLAY;
#X obj 315 565 hsl 400 160 0 1 0 0 empty empty empty -2 -8 0 10 -262144
-1 -1 0 1;
#X obj 585 124 bng 15 250 50 0 empty empty empty 17 7 0 10 -262144
-1 -1;
#X obj 420 42 inlet;
#X obj 420 124 bng 15 250 50 0 empty empty empty 17 7 0 10 -262144
-1 -1;
#X text 368 128 START;
#X obj 420 476 tabread4~ channel3;
#N canvas 0 50 450 250 (subpatch) 0;
#X array channel3 333208 float 2;
#X coords 0 1 333208 -1 400 160 1 0 0;
#X restore 317 565 graph;
#X text 472 123 STOP AND RESET;
#X obj 419 501 hip~ 5;
#X obj 60 198 soundfiler;
#X floatatom 188 220 10 0 0 0 - - -, f 10;
#X floatatom 61 328 10 0 0 0 - - -, f 10;
#X obj 99 368 *;
#X text 155 349 Playback Speed;
#X floatatom 158 328 10 0 1 0 - - -, f 10;
#X obj 137 266 r playbackSpeed;
#X obj 420 445 *~;
#X text 185 200 Num Samples;
#X obj 59 237 expr 44100 / $f1;
#X obj 589 35 inlet;
#X obj 167 300 hsl 128 15 0 2 0 0 empty empty empty -2 -8 0 10 -262144
-1 -1 6350 1;
#N canvas 959 342 471 558 phaser 0;
#X obj 267 39 inlet;
#X obj 66 52 inlet;
#X obj 217 482 outlet~;
#X obj 378 37 inlet;
#X text 243 16 Play BANG;
#X text 370 15 Stop BANG;
#X text 111 51 Phasor Rate;
#X text 45 16 Playback Speed;
#X msg 319 235 0;
#X obj 187 289 phasor~;
#X msg 219 165 1;
#X msg 262 166 0;
#X floatatom 240 197 5 0 0 0 - - -, f 5;
#X text 215 219 Play Request;
#X obj 187 250 spigot;
#X obj 186 202 bng 15 250 50 0 empty empty empty 17 7 0 10 -262144
-1 -1;
#X floatatom 165 227 5 0 0 0 - - -, f 5;
#X connect 0 0 10 0;
#X connect 1 0 16 0;
#X connect 3 0 11 0;
#X connect 3 0 8 0;
#X connect 8 0 9 1;
#X connect 8 0 9 0;
#X connect 9 0 2 0;
#X connect 10 0 12 0;
#X connect 10 0 15 0;
#X connect 11 0 12 0;
#X connect 12 0 14 1;
#X connect 14 0 9 0;
#X connect 15 0 16 0;
#X connect 16 0 14 0;
#X restore 489 337 pd phaser;
#X obj 93 272 bng 15 250 50 0 empty empty empty 17 7 0 10 -262144 -1
-1;
#X obj 59 130 del;
#X obj 77 60 r loopLoadDelay;
#X obj 77 98 * 2;
#N canvas 230 138 450 300 inverter~ 0;
#X obj 91 133 *~;
#X obj 204 66 r invertPlayback;
#X obj 204 90 select 0 1;
#X msg 237 116 -1;
#X msg 204 116 1;
#X obj 91 173 +~;
#X msg 204 156 0;
#X obj 93 37 inlet~;
#X obj 92 220 outlet~;
#X text 101 240 1 - 0;
#X text 102 16 0 - 1;
#X obj 9 196 snapshot~;
#X obj 9 150 tgl 15 0 empty empty empty 17 7 0 10 -262144 -1 -1 0 1
;
#X floatatom 9 221 10 0 0 0 - - -, f 10;
#X obj 9 171 metro 50;
#X obj 216 228 snapshot~;
#X obj 216 182 tgl 15 0 empty empty empty 17 7 0 10 -262144 -1 -1 0
1;
#X floatatom 216 253 10 0 0 0 - - -, f 10;
#X obj 216 203 metro 50;
#X msg 237 156 1;
#X connect 0 0 11 0;
#X connect 0 0 5 0;
#X connect 1 0 2 0;
#X connect 2 0 4 0;
#X connect 2 0 6 0;
#X connect 2 1 3 0;
#X connect 2 1 19 0;
#X connect 3 0 0 1;
#X connect 4 0 0 1;
#X connect 5 0 15 0;
#X connect 5 0 8 0;
#X connect 6 0 5 1;
#X connect 7 0 0 0;
#X connect 11 0 13 0;
#X connect 12 0 14 0;
#X connect 14 0 11 0;
#X connect 15 0 17 0;
#X connect 16 0 18 0;
#X connect 18 0 15 0;
#X connect 19 0 5 1;
#X restore 488 379 pd inverter~;
#X obj 661 99 r stop_3;
#X msg 59 161 read -resize bank2/03.wav channel3;
#X obj 59 38 r loadBank2;
#X connect 3 0 23 2;
#X connect 4 0 5 0;
#X connect 5 0 23 1;
#X connect 7 0 10 0;
#X connect 10 0 0 0;
#X connect 11 0 12 0;
#X connect 11 0 20 0;
#X connect 12 0 18 1;
#X connect 13 0 14 1;
#X connect 14 0 23 0;
#X connect 16 0 14 0;
#X connect 17 0 22 0;
#X connect 18 0 7 0;
#X connect 20 0 13 0;
#X connect 20 0 24 0;
#X connect 21 0 3 0;
#X connect 22 0 16 0;
#X connect 23 0 28 0;
#X connect 24 0 16 0;
#X connect 25 0 30 0;
#X connect 26 0 27 0;
#X connect 27 0 25 1;
#X connect 28 0 18 0;
#X connect 29 0 3 0;
#X connect 30 0 11 0;
#X connect 31 0 25 0;
#X restore 193 185 pd Sample3;
#N canvas 475 315 1036 685 Sample5 0;
#X obj 418 535 outlet~;
#X text 417 19 1:PLAY;
#X obj 315 565 hsl 400 160 0 1 0 0 empty empty empty -2 -8 0 10 -262144
-1 -1 0 1;
#X obj 585 124 bng 15 250 50 0 empty empty empty 17 7 0 10 -262144
-1 -1;
#X obj 420 42 inlet;
#X obj 420 124 bng 15 250 50 0 empty empty empty 17 7 0 10 -262144
-1 -1;
#X text 368 128 START;
#X obj 420 476 tabread4~ channel5;
#N canvas 0 50 450 250 (subpatch) 0;
#X array channel5 334542 float 2;
#X coords 0 1 334542 -1 400 160 1 0 0;
#X restore 317 565 graph;
#X text 472 123 STOP AND RESET;
#X obj 419 501 hip~ 5;
#X obj 60 198 soundfiler;
#X floatatom 188 220 10 0 0 0 - - -, f 10;
#X floatatom 58 322 10 0 0 0 - - -, f 10;
#X obj 99 368 *;
#X text 155 349 Playback Speed;
#X floatatom 158 328 10 0 1 0 - - -, f 10;
#X obj 137 266 r playbackSpeed;
#X obj 420 445 *~;
#X text 185 200 Num Samples;
#X obj 59 237 expr 44100 / $f1;
#X obj 589 35 inlet;
#X obj 167 300 hsl 128 15 0 2 0 0 empty empty empty -2 -8 0 10 -262144
-1 -1 6350 1;
#N canvas 60 226 471 558 phaser 0;
#X obj 261 37 inlet;
#X obj 66 52 inlet;
#X obj 217 482 outlet~;
#X obj 378 37 inlet;
#X text 243 16 Play BANG;
#X text 370 15 Stop BANG;
#X text 111 51 Phasor Rate;
#X text 45 16 Playback Speed;
#X msg 280 264 0;
#X obj 187 289 phasor~;
#X msg 219 165 1;
#X msg 262 166 0;
#X floatatom 240 197 5 0 0 0 - - -, f 5;
#X text 215 219 Play Request;
#X obj 187 250 spigot;
#X obj 186 202 bng 15 250 50 0 empty empty empty 17 7 0 10 -262144
-1 -1;
#X floatatom 165 227 5 0 0 0 - - -, f 5;
#X connect 0 0 10 0;
#X connect 1 0 16 0;
#X connect 3 0 11 0;
#X connect 3 0 8 0;
#X connect 8 0 9 1;
#X connect 8 0 9 0;
#X connect 9 0 2 0;
#X connect 10 0 12 0;
#X connect 10 0 15 0;
#X connect 11 0 12 0;
#X connect 12 0 14 1;
#X connect 14 0 9 0;
#X connect 15 0 16 0;
#X connect 16 0 14 0;
#X restore 487 337 pd phaser;
#X obj 93 286 bng 15 250 50 0 empty empty empty 17 7 0 10 -262144 -1
-1;
#X obj 59 131 del;
#X obj 77 61 r loopLoadDelay;
#X obj 77 99 * 4;
#N canvas 230 138 450 300 inverter~ 0;
#X obj 91 133 *~;
#X obj 204 66 r invertPlayback;
#X obj 204 90 select 0 1;
#X msg 237 116 -1;
#X msg 204 116 1;
#X obj 91 173 +~;
#X msg 204 156 0;
#X obj 93 37 inlet~;
#X obj 92 220 outlet~;
#X text 101 240 1 - 0;
#X text 102 16 0 - 1;
#X obj 9 196 snapshot~;
#X obj 9 150 tgl 15 0 empty empty empty 17 7 0 10 -262144 -1 -1 0 1
;
#X floatatom 9 221 10 0 0 0 - - -, f 10;
#X obj 9 171 metro 50;
#X obj 216 228 snapshot~;
#X obj 216 182 tgl 15 0 empty empty empty 17 7 0 10 -262144 -1 -1 0
1;
#X floatatom 216 253 10 0 0 0 - - -, f 10;
#X obj 216 203 metro 50;
#X msg 237 156 1;
#X connect 0 0 11 0;
#X connect 0 0 5 0;
#X connect 1 0 2 0;
#X connect 2 0 4 0;
#X connect 2 0 6 0;
#X connect 2 1 3 0;
#X connect 2 1 19 0;
#X connect 3 0 0 1;
#X connect 4 0 0 1;
#X connect 5 0 15 0;
#X connect 5 0 8 0;
#X connect 6 0 5 1;
#X connect 7 0 0 0;
#X connect 11 0 13 0;
#X connect 12 0 14 0;
#X connect 14 0 11 0;
#X connect 15 0 17 0;
#X connect 16 0 18 0;
#X connect 18 0 15 0;
#X connect 19 0 5 1;
#X restore 488 379 pd inverter~;
#X obj 663 101 r stop_5;
#X msg 59 161 read -resize bank2/05.wav channel5;
#X obj 59 39 r loadBank2;
#X connect 3 0 23 2;
#X connect 4 0 5 0;
#X connect 5 0 23 1;
#X connect 7 0 10 0;
#X connect 10 0 0 0;
#X connect 11 0 12 0;
#X connect 11 0 20 0;
#X connect 12 0 18 1;
#X connect 13 0 14 1;
#X connect 14 0 23 0;
#X connect 16 0 14 0;
#X connect 17 0 22 0;
#X connect 18 0 7 0;
#X connect 20 0 13 0;
#X connect 20 0 24 0;
#X connect 21 0 3 0;
#X connect 22 0 16 0;
#X connect 23 0 28 0;
#X connect 24 0 16 0;
#X connect 25 0 30 0;
#X connect 26 0 27 0;
#X connect 27 0 25 1;
#X connect 28 0 18 0;
#X connect 29 0 3 0;
#X connect 30 0 11 0;
#X connect 31 0 25 0;
#X restore 340 185 pd Sample5;
#N canvas 789 262 1036 685 Sample6 0;
#X obj 418 535 outlet~;
#X text 417 19 1:PLAY;
#X obj 315 565 hsl 400 160 0 1 0 0 empty empty empty -2 -8 0 10 -262144
-1 -1 0 1;
#X obj 585 124 bng 15 250 50 0 empty empty empty 17 7 0 10 -262144
-1 -1;
#X obj 420 42 inlet;
#X obj 420 124 bng 15 250 50 0 empty empty empty 17 7 0 10 -262144
-1 -1;
#X text 368 128 START;
#X obj 424 435 tabread4~ channel6;
#N canvas 0 50 450 250 (subpatch) 0;
#X array channel6 333829 float 2;
#X coords 0 1 333829 -1 400 160 1 0 0;
#X restore 317 565 graph;
#X text 472 123 STOP AND RESET;
#X obj 423 460 hip~ 5;
#X obj 60 198 soundfiler;
#X floatatom 188 220 10 0 0 0 - - -, f 10;
#X floatatom 58 322 10 0 0 0 - - -, f 10;
#X obj 99 368 *;
#X text 155 349 Playback Speed;
#X floatatom 158 328 10 0 1 0 - - -, f 10;
#X obj 137 266 r playbackSpeed;
#X obj 424 404 *~;
#X text 185 200 Num Samples;
#X obj 59 237 expr 44100 / $f1;
#X obj 589 35 inlet;
#X obj 167 300 hsl 128 15 0 2 0 0 empty empty empty -2 -8 0 10 -262144
-1 -1 6350 1;
#N canvas 61 220 471 558 phaser 0;
#X obj 261 37 inlet;
#X obj 66 52 inlet;
#X obj 217 482 outlet~;
#X obj 378 37 inlet;
#X text 243 16 Play BANG;
#X text 370 15 Stop BANG;
#X text 111 51 Phasor Rate;
#X text 45 16 Playback Speed;
#X msg 280 264 0;
#X obj 187 289 phasor~;
#X msg 219 165 1;
#X msg 262 166 0;
#X floatatom 240 197 5 0 0 0 - - -, f 5;
#X text 215 219 Play Request;
#X obj 187 250 spigot;
#X obj 186 202 bng 15 250 50 0 empty empty empty 17 7 0 10 -262144
-1 -1;
#X floatatom 165 227 5 0 0 0 - - -, f 5;
#X connect 0 0 10 0;
#X connect 1 0 16 0;
#X connect 3 0 11 0;
#X connect 3 0 8 0;
#X connect 8 0 9 1;
#X connect 8 0 9 0;
#X connect 9 0 2 0;
#X connect 10 0 12 0;
#X connect 10 0 15 0;
#X connect 11 0 12 0;
#X connect 12 0 14 1;
#X connect 14 0 9 0;
#X connect 15 0 16 0;
#X connect 16 0 14 0;
#X restore 486 337 pd phaser;
#X obj 93 286 bng 15 250 50 0 empty empty empty 17 7 0 10 -262144 -1
-1;
#X obj 59 130 del;
#X obj 77 60 r loopLoadDelay;
#X obj 77 98 * 5, f 4;
#N canvas 230 138 450 300 inverter~ 0;
#X obj 91 133 *~;
#X obj 204 66 r invertPlayback;
#X obj 204 90 select 0 1;
#X msg 237 116 -1;
#X msg 204 116 1;
#X obj 91 173 +~;
#X msg 204 156 0;
#X obj 93 37 inlet~;
#X obj 92 220 outlet~;
#X text 101 240 1 - 0;
#X text 102 16 0 - 1;
#X obj 9 196 snapshot~;
#X obj 9 150 tgl 15 0 empty empty empty 17 7 0 10 -262144 -1 -1 0 1
;
#X floatatom 9 221 10 0 0 0 - - -, f 10;
#X obj 9 171 metro 50;
#X obj 216 228 snapshot~;
#X obj 216 182 tgl 15 0 empty empty empty 17 7 0 10 -262144 -1 -1 0
1;
#X floatatom 216 253 10 0 0 0 - - -, f 10;
#X obj 216 203 metro 50;
#X msg 237 156 1;
#X connect 0 0 11 0;
#X connect 0 0 5 0;
#X connect 1 0 2 0;
#X connect 2 0 4 0;
#X connect 2 0 6 0;
#X connect 2 1 3 0;
#X connect 2 1 19 0;
#X connect 3 0 0 1;
#X connect 4 0 0 1;
#X connect 5 0 15 0;
#X connect 5 0 8 0;
#X connect 6 0 5 1;
#X connect 7 0 0 0;
#X connect 11 0 13 0;
#X connect 12 0 14 0;
#X connect 14 0 11 0;
#X connect 15 0 17 0;
#X connect 16 0 18 0;
#X connect 18 0 15 0;
#X connect 19 0 5 1;
#X restore 488 379 pd inverter~;
#X obj 663 101 r stop_6;
#X msg 59 161 read -resize bank2/06.wav channel6;
#X obj 59 38 r loadBank2;
#X connect 3 0 23 2;
#X connect 4 0 5 0;
#X connect 5 0 23 1;
#X connect 7 0 10 0;
#X connect 10 0 0 0;
#X connect 11 0 12 0;
#X connect 11 0 20 0;
#X connect 12 0 18 1;
#X connect 13 0 14 1;
#X connect 14 0 23 0;
#X connect 16 0 14 0;
#X connect 17 0 22 0;
#X connect 18 0 7 0;
#X connect 20 0 13 0;
#X connect 20 0 24 0;
#X connect 21 0 3 0;
#X connect 22 0 16 0;
#X connect 23 0 28 0;
#X connect 24 0 16 0;
#X connect 25 0 30 0;
#X connect 26 0 27 0;
#X connect 27 0 25 1;
#X connect 28 0 18 0;
#X connect 29 0 3 0;
#X connect 30 0 11 0;
#X connect 31 0 25 0;
#X restore 416 185 pd Sample6;
#N canvas 444 377 1036 810 Sample1 0;
#X obj 418 535 outlet~;
#X text 417 19 1:PLAY;
#X obj 315 565 hsl 400 160 0 1 0 0 empty empty empty -2 -8 0 10 -262144
-1 -1 0 1;
#X obj 585 124 bng 15 250 50 0 empty empty empty 17 7 0 10 -262144
-1 -1;
#X obj 420 42 inlet;
#X obj 421 124 bng 15 250 50 0 empty empty empty 17 7 0 10 -262144
-1 -1;
#X text 368 128 START;
#X obj 420 476 tabread4~ channel01;
#N canvas 0 50 450 250 (subpatch) 0;
#X array channel01 76481 float 2;
#X coords 0 1 76481 -1 400 160 1 0 0;
#X restore 317 565 graph;
#X text 467 92 STOP AND RESET;
#X obj 419 501 hip~ 5;
#X obj 60 198 soundfiler;
#X floatatom 188 220 10 0 0 0 - - -, f 10;
#X floatatom 58 282 10 0 0 0 - - -, f 10;
#X obj 99 368 *;
#X text 155 349 Playback Speed;
#X floatatom 158 328 10 0 1 0 - - -, f 10;
#X obj 166 253 r playbackSpeed;
#X obj 420 445 *~;
#X text 185 200 Num Samples;
#X obj 59 237 expr 44100 / $f1;
#X obj 589 35 inlet;
#X obj 167 300 hsl 128 15 0 2 0 0 empty empty empty -2 -8 0 10 -262144
-1 -1 6350 1;
#N canvas 813 336 471 558 phaserContinuous 0;
#X obj 261 37 inlet;
#X obj 66 52 inlet;
#X text 111 51 Phasor Rate;
#X obj 217 482 outlet~;
#X obj 378 37 inlet;
#X text 243 16 Play BANG;
#X text 370 15 Stop BANG;
#X text 45 16 Playback Speed;
#X msg 280 264 0;
#X obj 187 289 phasor~;
#X msg 219 165 1;
#X msg 262 166 0;
#X floatatom 240 197 5 0 0 0 - - -, f 5;
#X text 215 219 Play Request;
#X obj 187 250 spigot;
#X obj 176 192 bng 15 250 50 0 empty empty empty 17 7 0 10 -262144
-1 -1;
#X floatatom 155 217 5 0 0 0 - - -, f 5;
#X connect 0 0 10 0;
#X connect 1 0 16 0;
#X connect 4 0 11 0;
#X connect 4 0 8 0;
#X connect 8 0 9 1;
#X connect 8 0 9 0;
#X connect 9 0 3 0;
#X connect 10 0 12 0;
#X connect 11 0 12 0;
#X connect 12 0 14 1;
#X connect 12 0 15 0;
#X connect 14 0 9 0;
#X connect 15 0 16 0;
#X connect 16 0 14 0;
#X restore 489 337 pd phaserContinuous;
#X obj 97 317 bng 15 250 50 0 empty empty empty 17 7 0 10 -262144 -1
-1;
#X obj 63 115 del;
#X obj 81 83 * 1;
#X obj 81 45 r loopLoadDelay;
#N canvas 230 138 450 300 inverter~ 0;
#X obj 91 133 *~;
#X obj 204 66 r invertPlayback;
#X obj 204 90 select 0 1;
#X msg 237 116 -1;
#X msg 204 116 1;
#X obj 91 173 +~;
#X msg 204 156 0;
#X obj 93 37 inlet~;
#X obj 92 220 outlet~;
#X text 101 240 1 - 0;
#X text 102 16 0 - 1;
#X obj 9 196 snapshot~;
#X obj 9 150 tgl 15 0 empty empty empty 17 7 0 10 -262144 -1 -1 0 1
;
#X floatatom 9 221 10 0 0 0 - - -, f 10;
#X obj 9 171 metro 50;
#X obj 216 228 snapshot~;
#X obj 216 182 tgl 15 0 empty empty empty 17 7 0 10 -262144 -1 -1 0
1;
#X floatatom 216 253 10 0 0 0 - - -, f 10;
#X obj 216 203 metro 50;
#X msg 237 156 1;
#X connect 0 0 11 0;
#X connect 0 0 5 0;
#X connect 1 0 2 0;
#X connect 2 0 4 0;
#X connect 2 0 6 0;
#X connect 2 1 3 0;
#X connect 2 1 19 0;
#X connect 3 0 0 1;
#X connect 4 0 0 1;
#X connect 5 0 15 0;
#X connect 5 0 8 0;
#X connect 6 0 5 1;
#X connect 7 0 0 0;
#X connect 11 0 13 0;
#X connect 12 0 14 0;
#X connect 14 0 11 0;
#X connect 15 0 17 0;
#X connect 16 0 18 0;
#X connect 18 0 15 0;
#X connect 19 0 5 1;
#X restore 488 379 pd inverter~;
#X obj 663 101 r stop_1;
#X msg 60 165 read -resize bank2/01.wav channel01;
#X obj 64 23 r loadBank2;
#X connect 3 0 23 2;
#X connect 4 0 5 0;
#X connect 5 0 23 1;
#X connect 7 0 10 0;
#X connect 10 0 0 0;
#X connect 11 0 12 0;
#X connect 11 0 20 0;
#X connect 12 0 18 1;
#X connect 13 0 14 1;
#X connect 13 0 24 0;
#X connect 14 0 23 0;
#X connect 16 0 14 0;
#X connect 17 0 22 0;
#X connect 18 0 7 0;
#X connect 20 0 13 0;
#X connect 21 0 3 0;
#X connect 22 0 16 0;
#X connect 23 0 28 0;
#X connect 24 0 16 0;
#X connect 25 0 30 0;
#X connect 26 0 25 1;
#X connect 27 0 26 0;
#X connect 28 0 18 0;
#X connect 29 0 3 0;
#X connect 30 0 11 0;
#X connect 31 0 25 0;
#X restore 48 185 pd Sample1;
#N canvas 240 248 1036 685 Sample2 0;
#X obj 418 535 outlet~;
#X text 417 19 1:PLAY;
#X obj 315 565 hsl 400 160 0 1 0 0 empty empty empty -2 -8 0 10 -262144
-1 -1 0 1;
#X obj 585 124 bng 15 250 50 0 empty empty empty 17 7 0 10 -262144
-1 -1;
#X obj 420 42 inlet;
#X obj 420 124 bng 15 250 50 0 empty empty empty 17 7 0 10 -262144
-1 -1;
#X text 368 128 START;
#X obj 420 476 tabread4~ channel2;
#N canvas 0 50 450 250 (subpatch) 0;
#X array channel2 409833 float 2;
#X coords 0 1 409833 -1 400 160 1 0 0;
#X restore 317 565 graph;
#X text 472 123 STOP AND RESET;
#X obj 419 501 hip~ 5;
#X obj 60 198 soundfiler;
#X floatatom 188 220 10 0 0 0 - - -, f 10;
#X floatatom 68 320 10 0 0 0 - - -, f 10;
#X obj 99 368 *;
#X text 155 349 Playback Speed;
#X floatatom 158 328 10 0 1 0 - - -, f 10;
#X obj 137 266 r playbackSpeed;
#X obj 420 445 *~;
#X text 185 200 Num Samples;
#X obj 59 237 expr 44100 / $f1;
#X obj 589 35 inlet;
#X obj 167 300 hsl 128 15 0 2 0 0 empty empty empty -2 -8 0 10 -262144
-1 -1 6350 1;
#N canvas 668 379 471 558 phaser 0;
#X obj 261 37 inlet;
#X obj 212 493 outlet~;
#X obj 378 37 inlet;
#X text 243 16 Play BANG;
#X text 370 15 Stop BANG;
#X text 111 51 Phasor Rate;
#X text 45 16 Playback Speed;
#X msg 280 264 0;
#X obj 187 289 phasor~;
#X msg 219 165 1;
#X msg 262 166 0;
#X floatatom 240 197 5 0 0 0 - - -, f 5;
#X text 215 219 Play Request;
#X obj 187 250 spigot;
#X obj 55 49 inlet;
#X obj 186 202 bng 15 250 50 0 empty empty empty 17 7 0 10 -262144
-1 -1;
#X floatatom 165 227 5 0 0 0 - - -, f 5;
#X connect 0 0 9 0;
#X connect 2 0 10 0;
#X connect 2 0 7 0;
#X connect 7 0 8 1;
#X connect 7 0 8 0;
#X connect 8 0 1 0;
#X connect 9 0 11 0;
#X connect 9 0 15 0;
#X connect 10 0 11 0;
#X connect 11 0 13 1;
#X connect 13 0 8 0;
#X connect 14 0 16 0;
#X connect 15 0 16 0;
#X connect 16 0 13 0;
#X restore 489 337 pd phaser;
#X obj 100 289 bng 15 250 50 0 empty empty empty 17 7 0 10 -262144
-1 -1;
#N canvas 230 138 450 300 inverter~ 0;
#X obj 91 133 *~;
#X obj 204 66 r invertPlayback;
#X obj 204 90 select 0 1;
#X msg 237 116 -1;
#X msg 204 116 1;
#X obj 91 173 +~;
#X msg 204 156 0;
#X obj 93 37 inlet~;
#X obj 92 220 outlet~;
#X text 101 240 1 - 0;
#X text 102 16 0 - 1;
#X obj 9 196 snapshot~;
#X obj 9 150 tgl 15 0 empty empty empty 17 7 0 10 -262144 -1 -1 0 1
;
#X floatatom 9 221 10 0 0 0 - - -, f 10;
#X obj 9 171 metro 50;
#X obj 216 228 snapshot~;
#X obj 216 182 tgl 15 0 empty empty empty 17 7 0 10 -262144 -1 -1 0
1;
#X floatatom 216 253 10 0 0 0 - - -, f 10;
#X obj 216 203 metro 50;
#X msg 237 156 1;
#X connect 0 0 11 0;
#X connect 0 0 5 0;
#X connect 1 0 2 0;
#X connect 2 0 4 0;
#X connect 2 0 6 0;
#X connect 2 1 3 0;
#X connect 2 1 19 0;
#X connect 3 0 0 1;
#X connect 4 0 0 1;
#X connect 5 0 15 0;
#X connect 5 0 8 0;
#X connect 6 0 5 1;
#X connect 7 0 0 0;
#X connect 11 0 13 0;
#X connect 12 0 14 0;
#X connect 14 0 11 0;
#X connect 15 0 17 0;
#X connect 16 0 18 0;
#X connect 18 0 15 0;
#X connect 19 0 5 1;
#X restore 488 379 pd inverter~;
#X obj 662 101 r stop_2;
#X msg 59 160 read -resize bank2/02.wav channel2;
#X obj 61 106 r loadBank2;
#X connect 3 0 23 2;
#X connect 4 0 5 0;
#X connect 5 0 23 1;
#X connect 7 0 10 0;
#X connect 10 0 0 0;
#X connect 11 0 12 0;
#X connect 11 0 20 0;
#X connect 12 0 18 1;
#X connect 13 0 14 1;
#X connect 14 0 23 0;
#X connect 16 0 14 0;
#X connect 17 0 22 0;
#X connect 18 0 7 0;
#X connect 20 0 13 0;
#X connect 20 0 24 0;
#X connect 21 0 3 0;
#X connect 22 0 16 0;
#X connect 23 0 25 0;
#X connect 24 0 16 0;
#X connect 25 0 18 0;
#X connect 26 0 3 0;
#X connect 27 0 11 0;
#X connect 28 0 27 0;
#X restore 120 185 pd Sample2;
#X obj 193 87 bng 15 250 50 0 empty empty empty 17 7 0 10 -262144 -1
-1;
#X obj 609 425 *~ 0.5;
#X obj 240 412 *~ 0.5;
#N canvas 791 250 1036 685 Sample9 0;
#X obj 418 535 outlet~;
#X text 417 19 1:PLAY;
#X obj 315 565 hsl 400 160 0 1 0 0 empty empty empty -2 -8 0 10 -262144
-1 -1 0 1;
#X obj 585 124 bng 15 250 50 0 empty empty empty 17 7 0 10 -262144
-1 -1;
#X obj 420 42 inlet;
#X obj 420 124 bng 15 250 50 0 empty empty empty 17 7 0 10 -262144
-1 -1;
#X text 368 128 START;
#X obj 420 476 tabread4~ channel9;
#N canvas 0 50 450 250 (subpatch) 0;
#X array channel9 62317 float 2;
#X coords 0 1 62317 -1 400 160 1 0 0;
#X restore 317 565 graph;
#X text 472 123 STOP AND RESET;
#X obj 419 501 hip~ 5;
#X obj 60 198 soundfiler;
#X floatatom 188 220 10 0 0 0 - - -, f 10;
#X floatatom 58 322 10 0 0 0 - - -, f 10;
#X obj 99 368 *;
#X text 155 349 Playback Speed;
#X floatatom 158 328 10 0 1 0 - - -, f 10;
#X obj 420 445 *~;
#X text 185 200 Num Samples;
#X obj 59 237 expr 44100 / $f1;
#N canvas 63 208 471 558 phaserStop 0;
#X obj 261 37 inlet;
#X obj 165 347 samphold~;
#X obj 101 322 sig~ 0;
#X msg 112 244 set 1;
#X obj 215 416 *~;
#X obj 66 52 inlet;
#X text 45 16 Playback Speed 1 = default;
#X msg 364 214 0;
#X obj 225 271 phasor~;
#X floatatom 225 241 10 0 0 0 - - -, f 10;
#X text 111 51 Phasor Rate;
#X obj 217 482 outlet~;
#X msg 316 208 0;
#X msg 158 239 reset;
#X obj 378 37 inlet;
#X text 243 16 Play BANG;
#X obj 111 220 del 5;
#X obj 312 155 t b b b;
#X text 370 15 Stop BANG;
#X obj 238 154 t b b b;
#X connect 0 0 19 0;
#X connect 1 0 4 0;
#X connect 2 0 1 0;
#X connect 3 0 1 0;
#X connect 4 0 11 0;
#X connect 5 0 9 0;
#X connect 7 0 8 1;
#X connect 8 0 1 1;
#X connect 8 0 4 1;
#X connect 9 0 8 0;
#X connect 12 0 8 0;
#X connect 13 0 1 0;
#X connect 14 0 17 0;
#X connect 16 0 3 0;
#X connect 17 0 13 0;
#X connect 17 1 7 0;
#X connect 17 2 12 0;
#X connect 19 0 16 0;
#X connect 19 1 9 0;
#X connect 19 2 7 0;
#X restore 489 337 pd phaserStop;
#X obj 588 81 spigot;
#X obj 589 35 inlet;
#X obj 642 53 r holdToPlay;
#X obj 167 300 hsl 128 15 0 2 0 0 empty empty empty -2 -8 0 10 -262144
-1 -1 5835 1;
#X obj 59 130 del;
#X obj 77 60 r sampleLoadDelay;
#X obj 77 98 * 2;
#X obj 137 266 r effectSpeed;
#X obj 94 285 bng 15 250 50 0 empty empty empty 17 7 0 10 -262144 -1
-1;
#N canvas 230 138 450 300 inverter~ 0;
#X obj 91 133 *~;
#X obj 204 66 r invertPlayback;
#X obj 204 90 select 0 1;
#X msg 237 116 -1;
#X msg 204 116 1;
#X obj 91 173 +~;
#X msg 204 156 0;
#X obj 93 37 inlet~;
#X obj 92 220 outlet~;
#X text 101 240 1 - 0;
#X text 102 16 0 - 1;
#X obj 9 196 snapshot~;
#X obj 9 150 tgl 15 0 empty empty empty 17 7 0 10 -262144 -1 -1 0 1
;
#X floatatom 9 221 10 0 0 0 - - -, f 10;
#X obj 9 171 metro 50;
#X obj 216 228 snapshot~;
#X obj 216 182 tgl 15 0 empty empty empty 17 7 0 10 -262144 -1 -1 0
1;
#X floatatom 216 253 10 0 0 0 - - -, f 10;
#X obj 216 203 metro 50;
#X msg 237 156 1;
#X connect 0 0 11 0;
#X connect 0 0 5 0;
#X connect 1 0 2 0;
#X connect 2 0 4 0;
#X connect 2 0 6 0;
#X connect 2 1 3 0;
#X connect 2 1 19 0;
#X connect 3 0 0 1;
#X connect 4 0 0 1;
#X connect 5 0 15 0;
#X connect 5 0 8 0;
#X connect 6 0 5 1;
#X connect 7 0 0 0;
#X connect 11 0 13 0;
#X connect 12 0 14 0;
#X connect 14 0 11 0;
#X connect 15 0 17 0;
#X connect 16 0 18 0;
#X connect 18 0 15 0;
#X connect 19 0 5 1;
#X restore 488 379 pd inverter~;
#X obj 663 101 r stop_9;
#X msg 59 161 read -resize bank1/03.wav channel9;
#X obj 59 37 r loadBank1;
#X connect 3 0 20 2;
#X connect 4 0 5 0;
#X connect 5 0 20 1;
#X connect 7 0 10 0;
#X connect 10 0 0 0;
#X connect 11 0 12 0;
#X connect 11 0 19 0;
#X connect 12 0 17 1;
#X connect 13 0 14 1;
#X connect 14 0 20 0;
#X connect 16 0 14 0;
#X connect 17 0 7 0;
#X connect 19 0 13 0;
#X connect 19 0 29 0;
#X connect 20 0 30 0;
#X connect 21 0 3 0;
#X connect 22 0 21 0;
#X connect 23 0 21 1;
#X connect 24 0 16 0;
#X connect 25 0 32 0;
#X connect 26 0 27 0;
#X connect 27 0 25 1;
#X connect 28 0 24 0;
#X connect 29 0 16 0;
#X connect 30 0 17 0;
#X connect 31 0 3 0;
#X connect 32 0 11 0;
#X connect 33 0 25 0;
#X restore 638 185 pd Sample9;
#N canvas 791 250 1036 685 SampleA 0;
#X obj 418 535 outlet~;
#X text 417 19 1:PLAY;
#X obj 315 565 hsl 400 160 0 1 0 0 empty empty empty -2 -8 0 10 -262144
-1 -1 0 1;
#X obj 585 124 bng 15 250 50 0 empty empty empty 17 7 0 10 -262144
-1 -1;
#X obj 420 42 inlet;
#X obj 420 124 bng 15 250 50 0 empty empty empty 17 7 0 10 -262144
-1 -1;
#X text 368 128 START;
#X obj 420 476 tabread4~ channel10;
#N canvas 0 50 450 250 (subpatch) 0;
#X array channel10 73676 float 2;
#X coords 0 1 73676 -1 400 160 1 0 0;
#X restore 317 565 graph;
#X text 472 123 STOP AND RESET;
#X obj 419 501 hip~ 5;
#X obj 60 198 soundfiler;
#X floatatom 188 220 10 0 0 0 - - -, f 10;
#X floatatom 58 322 10 0 0 0 - - -, f 10;
#X obj 99 368 *;
#X text 155 349 Playback Speed;
#X floatatom 158 328 10 0 1 0 - - -, f 10;
#X obj 420 445 *~;
#X text 185 200 Num Samples;
#X obj 59 237 expr 44100 / $f1;
#N canvas 63 208 471 558 phaserStop 0;
#X obj 261 37 inlet;
#X obj 165 347 samphold~;
#X obj 101 322 sig~ 0;
#X msg 112 244 set 1;
#X obj 215 416 *~;
#X obj 66 52 inlet;
#X text 45 16 Playback Speed 1 = default;
#X msg 364 214 0;
#X obj 225 271 phasor~;
#X floatatom 225 241 10 0 0 0 - - -, f 10;
#X text 111 51 Phasor Rate;
#X obj 217 482 outlet~;
#X msg 316 208 0;
#X msg 158 239 reset;
#X obj 378 37 inlet;
#X text 243 16 Play BANG;
#X obj 111 220 del 5;
#X obj 312 155 t b b b;
#X text 370 15 Stop BANG;
#X obj 238 154 t b b b;
#X connect 0 0 19 0;
#X connect 1 0 4 0;
#X connect 2 0 1 0;
#X connect 3 0 1 0;
#X connect 4 0 11 0;
#X connect 5 0 9 0;
#X connect 7 0 8 1;
#X connect 8 0 1 1;
#X connect 8 0 4 1;
#X connect 9 0 8 0;
#X connect 12 0 8 0;
#X connect 13 0 1 0;
#X connect 14 0 17 0;
#X connect 16 0 3 0;
#X connect 17 0 13 0;
#X connect 17 1 7 0;
#X connect 17 2 12 0;
#X connect 19 0 16 0;
#X connect 19 1 9 0;
#X connect 19 2 7 0;
#X restore 489 337 pd phaserStop;
#X obj 588 81 spigot;
#X obj 589 35 inlet;
#X obj 642 53 r holdToPlay;
#X obj 167 300 hsl 128 15 0 2 0 0 empty empty empty -2 -8 0 10 -262144
-1 -1 5835 1;
#X obj 59 130 del;
#X obj 77 60 r sampleLoadDelay;
#X obj 77 98 * 3;
#X obj 137 266 r effectSpeed;
#X obj 94 285 bng 15 250 50 0 empty empty empty 17 7 0 10 -262144 -1
-1;
#N canvas 230 138 450 300 inverter~ 0;
#X obj 91 133 *~;
#X obj 204 66 r invertPlayback;
#X obj 204 90 select 0 1;
#X msg 237 116 -1;
#X msg 204 116 1;
#X obj 91 173 +~;
#X msg 204 156 0;
#X obj 93 37 inlet~;
#X obj 92 220 outlet~;
#X text 101 240 1 - 0;
#X text 102 16 0 - 1;
#X obj 9 196 snapshot~;
#X obj 9 150 tgl 15 0 empty empty empty 17 7 0 10 -262144 -1 -1 0 1
;
#X floatatom 9 221 10 0 0 0 - - -, f 10;
#X obj 9 171 metro 50;
#X obj 216 228 snapshot~;
#X obj 216 182 tgl 15 0 empty empty empty 17 7 0 10 -262144 -1 -1 0
1;
#X floatatom 216 253 10 0 0 0 - - -, f 10;
#X obj 216 203 metro 50;
#X msg 237 156 1;
#X connect 0 0 11 0;
#X connect 0 0 5 0;
#X connect 1 0 2 0;
#X connect 2 0 4 0;
#X connect 2 0 6 0;
#X connect 2 1 3 0;
#X connect 2 1 19 0;
#X connect 3 0 0 1;
#X connect 4 0 0 1;
#X connect 5 0 15 0;
#X connect 5 0 8 0;
#X connect 6 0 5 1;
#X connect 7 0 0 0;
#X connect 11 0 13 0;
#X connect 12 0 14 0;
#X connect 14 0 11 0;
#X connect 15 0 17 0;
#X connect 16 0 18 0;
#X connect 18 0 15 0;
#X connect 19 0 5 1;
#X restore 488 379 pd inverter~;
#X obj 664 101 r stop_10;
#X msg 59 161 read -resize bank1/04.wav channel10;
#X obj 59 37 r loadBank1;
#X connect 3 0 20 2;
#X connect 4 0 5 0;
#X connect 5 0 20 1;
#X connect 7 0 10 0;
#X connect 10 0 0 0;
#X connect 11 0 12 0;
#X connect 11 0 19 0;
#X connect 12 0 17 1;
#X connect 13 0 14 1;
#X connect 14 0 20 0;
#X connect 16 0 14 0;
#X connect 17 0 7 0;
#X connect 19 0 13 0;
#X connect 19 0 29 0;
#X connect 20 0 30 0;
#X connect 21 0 3 0;
#X connect 22 0 21 0;
#X connect 23 0 21 1;
#X connect 24 0 16 0;
#X connect 25 0 32 0;
#X connect 26 0 27 0;
#X connect 27 0 25 1;
#X connect 28 0 24 0;
#X connect 29 0 16 0;
#X connect 30 0 17 0;
#X connect 31 0 3 0;
#X connect 32 0 11 0;
#X connect 33 0 25 0;
#X restore 710 186 pd SampleA;
#N canvas 791 250 1036 685 SampleB 0;
#X obj 418 535 outlet~;
#X text 417 19 1:PLAY;
#X obj 315 565 hsl 400 160 0 1 0 0 empty empty empty -2 -8 0 10 -262144
-1 -1 0 1;
#X obj 585 124 bng 15 250 50 0 empty empty empty 17 7 0 10 -262144
-1 -1;
#X obj 420 42 inlet;
#X obj 420 124 bng 15 250 50 0 empty empty empty 17 7 0 10 -262144
-1 -1;
#X text 368 128 START;
#X obj 420 476 tabread4~ channel11;
#N canvas 0 50 450 250 (subpatch) 0;
#X array channel11 26720 float 2;
#X coords 0 1 26720 -1 400 160 1 0 0;
#X restore 317 565 graph;
#X text 472 123 STOP AND RESET;
#X obj 419 501 hip~ 5;
#X obj 60 198 soundfiler;
#X floatatom 188 220 10 0 0 0 - - -, f 10;
#X floatatom 58 322 10 0 0 0 - - -, f 10;
#X obj 99 368 *;
#X text 155 349 Playback Speed;
#X floatatom 158 328 10 0 1 0 - - -, f 10;
#X obj 420 445 *~;
#X text 185 200 Num Samples;
#X obj 59 237 expr 44100 / $f1;
#N canvas 63 208 471 558 phaserStop 0;
#X obj 261 37 inlet;
#X obj 165 347 samphold~;
#X obj 101 322 sig~ 0;
#X msg 112 244 set 1;
#X obj 215 416 *~;
#X obj 66 52 inlet;
#X text 45 16 Playback Speed 1 = default;
#X msg 364 214 0;
#X obj 225 271 phasor~;
#X floatatom 225 241 10 0 0 0 - - -, f 10;
#X text 111 51 Phasor Rate;
#X obj 217 482 outlet~;
#X msg 316 208 0;
#X msg 158 239 reset;
#X obj 378 37 inlet;
#X text 243 16 Play BANG;
#X obj 111 220 del 5;
#X obj 312 155 t b b b;
#X text 370 15 Stop BANG;
#X obj 238 154 t b b b;
#X connect 0 0 19 0;
#X connect 1 0 4 0;
#X connect 2 0 1 0;
#X connect 3 0 1 0;
#X connect 4 0 11 0;
#X connect 5 0 9 0;
#X connect 7 0 8 1;
#X connect 8 0 1 1;
#X connect 8 0 4 1;
#X connect 9 0 8 0;
#X connect 12 0 8 0;
#X connect 13 0 1 0;
#X connect 14 0 17 0;
#X connect 16 0 3 0;
#X connect 17 0 13 0;
#X connect 17 1 7 0;
#X connect 17 2 12 0;
#X connect 19 0 16 0;
#X connect 19 1 9 0;
#X connect 19 2 7 0;
#X restore 489 337 pd phaserStop;
#X obj 588 81 spigot;
#X obj 589 35 inlet;
#X obj 642 53 r holdToPlay;
#X obj 167 300 hsl 128 15 0 2 0 0 empty empty empty -2 -8 0 10 -262144
-1 -1 5835 1;
#X obj 59 130 del;
#X obj 77 60 r sampleLoadDelay;
#X obj 77 98 * 4;
#X obj 137 266 r effectSpeed;
#X obj 94 285 bng 15 250 50 0 empty empty empty 17 7 0 10 -262144 -1
-1;
#N canvas 230 138 450 300 inverter~ 0;
#X obj 91 133 *~;
#X obj 204 66 r invertPlayback;
#X obj 204 90 select 0 1;
#X msg 237 116 -1;
#X msg 204 116 1;
#X obj 91 173 +~;
#X msg 204 156 0;
#X obj 93 37 inlet~;
#X obj 92 220 outlet~;
#X text 101 240 1 - 0;
#X text 102 16 0 - 1;
#X obj 9 196 snapshot~;
#X obj 9 150 tgl 15 0 empty empty empty 17 7 0 10 -262144 -1 -1 0 1
;
#X floatatom 9 221 10 0 0 0 - - -, f 10;
#X obj 9 171 metro 50;
#X obj 216 228 snapshot~;
#X obj 216 182 tgl 15 0 empty empty empty 17 7 0 10 -262144 -1 -1 0
1;
#X floatatom 216 253 10 0 0 0 - - -, f 10;
#X obj 216 203 metro 50;
#X msg 237 156 1;
#X connect 0 0 11 0;
#X connect 0 0 5 0;
#X connect 1 0 2 0;
#X connect 2 0 4 0;
#X connect 2 0 6 0;
#X connect 2 1 3 0;
#X connect 2 1 19 0;
#X connect 3 0 0 1;
#X connect 4 0 0 1;
#X connect 5 0 15 0;
#X connect 5 0 8 0;
#X connect 6 0 5 1;
#X connect 7 0 0 0;
#X connect 11 0 13 0;
#X connect 12 0 14 0;
#X connect 14 0 11 0;
#X connect 15 0 17 0;
#X connect 16 0 18 0;
#X connect 18 0 15 0;
#X connect 19 0 5 1;
#X restore 488 379 pd inverter~;
#X obj 663 101 r stop_11;
#X msg 58 161 read -resize bank1/05.wav channel11;
#X obj 59 37 r loadBank1;
#X connect 3 0 20 2;
#X connect 4 0 5 0;
#X connect 5 0 20 1;
#X connect 7 0 10 0;
#X connect 10 0 0 0;
#X connect 11 0 12 0;
#X connect 11 0 19 0;
#X connect 12 0 17 1;
#X connect 13 0 14 1;
#X connect 14 0 20 0;
#X connect 16 0 14 0;
#X connect 17 0 7 0;
#X connect 19 0 13 0;
#X connect 19 0 29 0;
#X connect 20 0 30 0;
#X connect 21 0 3 0;
#X connect 22 0 21 0;
#X connect 23 0 21 1;
#X connect 24 0 16 0;
#X connect 25 0 32 0;
#X connect 26 0 27 0;
#X connect 27 0 25 1;
#X connect 28 0 24 0;
#X connect 29 0 16 0;
#X connect 30 0 17 0;
#X connect 31 0 3 0;
#X connect 32 0 11 0;
#X connect 33 0 25 0;
#X restore 783 185 pd SampleB;
#N canvas 851 313 1036 685 SampleC 0;
#X obj 418 535 outlet~;
#X text 417 19 1:PLAY;
#X obj 315 565 hsl 400 160 0 1 0 0 empty empty empty -2 -8 0 10 -262144
-1 -1 0 1;
#X obj 585 124 bng 15 250 50 0 empty empty empty 17 7 0 10 -262144
-1 -1;
#X obj 420 42 inlet;
#X obj 420 124 bng 15 250 50 0 empty empty empty 17 7 0 10 -262144
-1 -1;
#X text 368 128 START;
#X obj 420 476 tabread4~ channel12;
#N canvas 0 50 450 250 (subpatch) 0;
#X array channel12 54087 float 2;
#X coords 0 1 54087 -1 400 160 1 0 0;
#X restore 317 565 graph;
#X text 472 123 STOP AND RESET;
#X obj 419 501 hip~ 5;
#X obj 60 198 soundfiler;
#X floatatom 188 220 10 0 0 0 - - -, f 10;
#X floatatom 58 322 10 0 0 0 - - -, f 10;
#X obj 99 368 *;
#X text 155 349 Playback Speed;
#X floatatom 158 328 10 0 1 0 - - -, f 10;
#X obj 420 445 *~;
#X text 185 200 Num Samples;
#X obj 59 237 expr 44100 / $f1;
#N canvas 63 208 471 558 phaserStop 0;
#X obj 261 37 inlet;
#X obj 165 347 samphold~;
#X obj 101 322 sig~ 0;
#X msg 112 244 set 1;
#X obj 215 416 *~;
#X obj 66 52 inlet;
#X text 45 16 Playback Speed 1 = default;
#X msg 364 214 0;
#X obj 225 271 phasor~;
#X floatatom 225 241 10 0 0 0 - - -, f 10;
#X text 111 51 Phasor Rate;
#X obj 217 482 outlet~;
#X msg 316 208 0;
#X msg 158 239 reset;
#X obj 378 37 inlet;
#X text 243 16 Play BANG;
#X obj 111 220 del 5;
#X obj 312 155 t b b b;
#X text 370 15 Stop BANG;
#X obj 238 154 t b b b;
#X connect 0 0 19 0;
#X connect 1 0 4 0;
#X connect 2 0 1 0;
#X connect 3 0 1 0;
#X connect 4 0 11 0;
#X connect 5 0 9 0;
#X connect 7 0 8 1;
#X connect 8 0 1 1;
#X connect 8 0 4 1;
#X connect 9 0 8 0;
#X connect 12 0 8 0;
#X connect 13 0 1 0;
#X connect 14 0 17 0;
#X connect 16 0 3 0;
#X connect 17 0 13 0;
#X connect 17 1 7 0;
#X connect 17 2 12 0;
#X connect 19 0 16 0;
#X connect 19 1 9 0;
#X connect 19 2 7 0;
#X restore 489 337 pd phaserStop;
#X obj 588 81 spigot;
#X obj 589 35 inlet;
#X obj 642 53 r holdToPlay;
#X obj 167 300 hsl 128 15 0 2 0 0 empty empty empty -2 -8 0 10 -262144
-1 -1 5835 1;
#X obj 59 130 del;
#X obj 77 60 r sampleLoadDelay;
#X obj 77 98 * 5;
#X obj 137 266 r effectSpeed;
#X obj 94 285 bng 15 250 50 0 empty empty empty 17 7 0 10 -262144 -1
-1;
#N canvas 230 138 450 300 inverter~ 0;
#X obj 91 133 *~;
#X obj 204 66 r invertPlayback;
#X obj 204 90 select 0 1;
#X msg 237 116 -1;
#X msg 204 116 1;
#X obj 91 173 +~;
#X msg 204 156 0;
#X obj 93 37 inlet~;
#X obj 92 220 outlet~;
#X text 101 240 1 - 0;
#X text 102 16 0 - 1;
#X obj 9 196 snapshot~;
#X obj 9 150 tgl 15 0 empty empty empty 17 7 0 10 -262144 -1 -1 0 1
;
#X floatatom 9 221 10 0 0 0 - - -, f 10;
#X obj 9 171 metro 50;
#X obj 216 228 snapshot~;
#X obj 216 182 tgl 15 0 empty empty empty 17 7 0 10 -262144 -1 -1 0
1;
#X floatatom 216 253 10 0 0 0 - - -, f 10;
#X obj 216 203 metro 50;
#X msg 237 156 1;
#X connect 0 0 11 0;
#X connect 0 0 5 0;
#X connect 1 0 2 0;
#X connect 2 0 4 0;
#X connect 2 0 6 0;
#X connect 2 1 3 0;
#X connect 2 1 19 0;
#X connect 3 0 0 1;
#X connect 4 0 0 1;
#X connect 5 0 15 0;
#X connect 5 0 8 0;
#X connect 6 0 5 1;
#X connect 7 0 0 0;
#X connect 11 0 13 0;
#X connect 12 0 14 0;
#X connect 14 0 11 0;
#X connect 15 0 17 0;
#X connect 16 0 18 0;
#X connect 18 0 15 0;
#X connect 19 0 5 1;
#X restore 488 379 pd inverter~;
#X obj 663 101 r stop_12;
#X msg 59 161 read -resize bank1/06.wav channel12;
#X obj 59 37 r loadBank1;
#X connect 3 0 20 2;
#X connect 4 0 5 0;
#X connect 5 0 20 1;
#X connect 7 0 10 0;
#X connect 10 0 0 0;
#X connect 11 0 12 0;
#X connect 11 0 19 0;
#X connect 12 0 17 1;
#X connect 13 0 14 1;
#X connect 14 0 20 0;
#X connect 16 0 14 0;
#X connect 17 0 7 0;
#X connect 19 0 13 0;
#X connect 19 0 29 0;
#X connect 20 0 30 0;
#X connect 21 0 3 0;
#X connect 22 0 21 0;
#X connect 23 0 21 1;
#X connect 24 0 16 0;
#X connect 25 0 32 0;
#X connect 26 0 27 0;
#X connect 27 0 25 1;
#X connect 28 0 24 0;
#X connect 29 0 16 0;
#X connect 30 0 17 0;
#X connect 31 0 3 0;
#X connect 32 0 11 0;
#X connect 33 0 25 0;
#X restore 858 185 pd SampleC;
#N canvas 99 222 1036 685 Sample7 0;
#X obj 418 535 outlet~;
#X text 417 19 1:PLAY;
#X obj 315 565 hsl 400 160 0 1 0 0 empty empty empty -2 -8 0 10 -262144
-1 -1 0 1;
#X obj 585 124 bng 15 250 50 0 empty empty empty 17 7 0 10 -262144
-1 -1;
#X obj 420 42 inlet;
#X obj 420 124 bng 15 250 50 0 empty empty empty 17 7 0 10 -262144
-1 -1;
#X text 368 128 START;
#X obj 420 476 tabread4~ channel7;
#N canvas 0 50 450 250 (subpatch) 0;
#X array channel7 76481 float 2;
#X coords 0 1 76481 -1 400 160 1 0 0;
#X restore 317 565 graph;
#X text 472 123 STOP AND RESET;
#X obj 419 501 hip~ 5;
#X obj 60 198 soundfiler;
#X floatatom 188 220 10 0 0 0 - - -, f 10;
#X floatatom 58 322 10 0 0 0 - - -, f 10;
#X obj 99 368 *;
#X text 155 349 Playback Speed;
#X floatatom 158 328 10 0 1 0 - - -, f 10;
#X obj 420 445 *~;
#X text 185 200 Num Samples;
#X obj 59 237 expr 44100 / $f1;
#N canvas 62 214 471 558 phaserStop 0;
#X obj 261 37 inlet;
#X obj 165 347 samphold~;
#X obj 101 322 sig~ 0;
#X msg 112 244 set 1;
#X obj 215 416 *~;
#X obj 66 52 inlet;
#X text 45 16 Playback Speed 1 = default;
#X msg 364 214 0;
#X obj 225 271 phasor~;
#X floatatom 225 241 10 0 0 0 - - -, f 10;
#X text 111 51 Phasor Rate;
#X obj 217 482 outlet~;
#X msg 316 208 0;
#X msg 158 239 reset;
#X obj 378 37 inlet;
#X text 243 16 Play BANG;
#X obj 111 220 del 5;
#X obj 312 155 t b b b;
#X text 370 15 Stop BANG;
#X obj 238 154 t b b b;
#X connect 0 0 19 0;
#X connect 1 0 4 0;
#X connect 2 0 1 0;
#X connect 3 0 1 0;
#X connect 4 0 11 0;
#X connect 5 0 9 0;
#X connect 7 0 8 1;
#X connect 8 0 1 1;
#X connect 8 0 4 1;
#X connect 9 0 8 0;
#X connect 12 0 8 0;
#X connect 13 0 1 0;
#X connect 14 0 17 0;
#X connect 16 0 3 0;
#X connect 17 0 13 0;
#X connect 17 1 7 0;
#X connect 17 2 12 0;
#X connect 19 0 16 0;
#X connect 19 1 9 0;
#X connect 19 2 7 0;
#X restore 489 337 pd phaserStop;
#X obj 588 81 spigot;
#X obj 589 35 inlet;
#X obj 642 53 r holdToPlay;
#X obj 167 300 hsl 128 15 0 2 0 0 empty empty empty -2 -8 0 10 -262144
-1 -1 5835 1;
#X obj 137 266 r effectSpeed;
#X obj 94 285 bng 15 250 50 0 empty empty empty 17 7 0 10 -262144 -1
-1;
#N canvas 230 138 450 300 inverter~ 0;
#X obj 91 133 *~;
#X obj 204 66 r invertPlayback;
#X obj 204 90 select 0 1;
#X msg 237 116 -1;
#X msg 204 116 1;
#X obj 91 173 +~;
#X msg 204 156 0;
#X obj 93 37 inlet~;
#X obj 92 220 outlet~;
#X text 101 240 1 - 0;
#X text 102 16 0 - 1;
#X obj 9 196 snapshot~;
#X obj 9 150 tgl 15 0 empty empty empty 17 7 0 10 -262144 -1 -1 0 1
;
#X floatatom 9 221 10 0 0 0 - - -, f 10;
#X obj 9 171 metro 50;
#X obj 216 228 snapshot~;
#X obj 216 182 tgl 15 0 empty empty empty 17 7 0 10 -262144 -1 -1 0
1;
#X floatatom 216 253 10 0 0 0 - - -, f 10;
#X obj 216 203 metro 50;
#X msg 237 156 1;
#X connect 0 0 11 0;
#X connect 0 0 5 0;
#X connect 1 0 2 0;
#X connect 2 0 4 0;
#X connect 2 0 6 0;
#X connect 2 1 3 0;
#X connect 2 1 19 0;
#X connect 3 0 0 1;
#X connect 4 0 0 1;
#X connect 5 0 15 0;
#X connect 5 0 8 0;
#X connect 6 0 5 1;
#X connect 7 0 0 0;
#X connect 11 0 13 0;
#X connect 12 0 14 0;
#X connect 14 0 11 0;
#X connect 15 0 17 0;
#X connect 16 0 18 0;
#X connect 18 0 15 0;
#X connect 19 0 5 1;
#X restore 487 371 pd inverter~;
#X obj 663 101 r stop_7;
#X msg 58 161 read -resize bank1/01.wav channel7;
#X obj 60 95 r loadBank1;
#X connect 3 0 20 2;
#X connect 4 0 5 0;
#X connect 5 0 20 1;
#X connect 7 0 10 0;
#X connect 10 0 0 0;
#X connect 11 0 12 0;
#X connect 11 0 19 0;
#X connect 12 0 17 1;
#X connect 13 0 14 1;
#X connect 14 0 20 0;
#X connect 16 0 14 0;
#X connect 17 0 7 0;
#X connect 19 0 13 0;
#X connect 19 0 26 0;
#X connect 20 0 27 0;
#X connect 21 0 3 0;
#X connect 22 0 21 0;
#X connect 23 0 21 1;
#X connect 24 0 16 0;
#X connect 25 0 24 0;
#X connect 26 0 16 0;
#X connect 27 0 17 0;
#X connect 28 0 3 0;
#X connect 29 0 11 0;
#X connect 30 0 29 0;
#X restore 492 185 pd Sample7;
#N canvas 366 248 1036 685 Sample8 0;
#X obj 418 535 outlet~;
#X text 417 19 1:PLAY;
#X obj 315 565 hsl 400 160 0 1 0 0 empty empty empty -2 -8 0 10 -262144
-1 -1 0 1;
#X obj 585 124 bng 15 250 50 0 empty empty empty 17 7 0 10 -262144
-1 -1;
#X obj 420 42 inlet;
#X obj 420 124 bng 15 250 50 0 empty empty empty 17 7 0 10 -262144
-1 -1;
#X text 368 128 START;
#X obj 420 476 tabread4~ channel8;
#N canvas 0 50 450 250 (subpatch) 0;
#X array channel8 409833 float 2;
#X coords 0 1 409833 -1 400 160 1 0 0;
#X restore 317 565 graph;
#X text 472 123 STOP AND RESET;
#X obj 419 501 hip~ 5;
#X obj 60 198 soundfiler;
#X floatatom 188 220 10 0 0 0 - - -, f 10;
#X floatatom 58 322 10 0 0 0 - - -, f 10;
#X obj 99 368 *;
#X text 155 349 Playback Speed;
#X floatatom 158 328 10 0 1 0 - - -, f 10;
#X obj 420 445 *~;
#X text 185 200 Num Samples;
#X obj 59 237 expr 44100 / $f1;
#N canvas 278 245 471 558 phaserStop 0;
#X obj 261 37 inlet;
#X obj 165 347 samphold~;
#X obj 101 322 sig~ 0;
#X msg 112 244 set 1;
#X obj 215 416 *~;
#X obj 66 52 inlet;
#X text 45 16 Playback Speed 1 = default;
#X msg 364 214 0;
#X obj 225 271 phasor~;
#X floatatom 225 241 10 0 0 0 - - -, f 10;
#X text 111 51 Phasor Rate;
#X obj 217 482 outlet~;
#X msg 316 208 0;
#X msg 158 239 reset;
#X obj 378 37 inlet;
#X text 243 16 Play BANG;
#X obj 111 220 del 5;
#X obj 312 155 t b b b;
#X text 370 15 Stop BANG;
#X obj 238 154 t b b b;
#X connect 0 0 19 0;
#X connect 1 0 4 0;
#X connect 2 0 1 0;
#X connect 3 0 1 0;
#X connect 4 0 11 0;
#X connect 5 0 9 0;
#X connect 7 0 8 1;
#X connect 8 0 1 1;
#X connect 8 0 4 1;
#X connect 9 0 8 0;
#X connect 12 0 8 0;
#X connect 13 0 1 0;
#X connect 14 0 17 0;
#X connect 16 0 3 0;
#X connect 17 0 13 0;
#X connect 17 1 7 0;
#X connect 17 2 12 0;
#X connect 19 0 16 0;
#X connect 19 1 9 0;
#X connect 19 2 7 0;
#X restore 489 337 pd phaserStop;
#X obj 588 81 spigot;
#X obj 589 35 inlet;
#X obj 642 53 r holdToPlay;
#X obj 167 300 hsl 128 15 0 2 0 0 empty empty empty -2 -8 0 10 -262144
-1 -1 5835 1;
#X obj 59 130 del;
#X obj 77 60 r sampleLoadDelay;
#X obj 77 98 * 1;
#X obj 137 266 r effectSpeed;
#X obj 117 124 bng 15 250 50 0 empty empty empty 17 7 0 10 -262144
-1 -1;
#X obj 94 285 bng 15 250 50 0 empty empty empty 17 7 0 10 -262144 -1
-1;
#N canvas 230 138 450 300 inverter~ 0;
#X obj 91 133 *~;
#X obj 204 66 r invertPlayback;
#X obj 204 90 select 0 1;
#X msg 237 116 -1;
#X msg 204 116 1;
#X obj 91 173 +~;
#X msg 204 156 0;
#X obj 93 37 inlet~;
#X obj 92 220 outlet~;
#X text 101 240 1 - 0;
#X text 102 16 0 - 1;
#X obj 9 196 snapshot~;
#X obj 9 150 tgl 15 0 empty empty empty 17 7 0 10 -262144 -1 -1 0 1
;
#X floatatom 9 221 10 0 0 0 - - -, f 10;
#X obj 9 171 metro 50;
#X obj 216 228 snapshot~;
#X obj 216 182 tgl 15 0 empty empty empty 17 7 0 10 -262144 -1 -1 0
1;
#X floatatom 216 253 10 0 0 0 - - -, f 10;
#X obj 216 203 metro 50;
#X msg 237 156 1;
#X connect 0 0 11 0;
#X connect 0 0 5 0;
#X connect 1 0 2 0;
#X connect 2 0 4 0;
#X connect 2 0 6 0;
#X connect 2 1 3 0;
#X connect 2 1 19 0;
#X connect 3 0 0 1;
#X connect 4 0 0 1;
#X connect 5 0 15 0;
#X connect 5 0 8 0;
#X connect 6 0 5 1;
#X connect 7 0 0 0;
#X connect 11 0 13 0;
#X connect 12 0 14 0;
#X connect 14 0 11 0;
#X connect 15 0 17 0;
#X connect 16 0 18 0;
#X connect 18 0 15 0;
#X connect 19 0 5 1;
#X restore 488 379 pd inverter~;
#X obj 663 101 r stop_8;
#X msg 59 164 read -resize bank1/02.wav channel8;
#X obj 59 37 r loadBank1;
#X connect 3 0 20 2;
#X connect 4 0 5 0;
#X connect 5 0 20 1;
#X connect 7 0 10 0;
#X connect 10 0 0 0;
#X connect 11 0 12 0;
#X connect 11 0 19 0;
#X connect 12 0 17 1;
#X connect 13 0 14 1;
#X connect 14 0 20 0;
#X connect 16 0 14 0;
#X connect 17 0 7 0;
#X connect 19 0 13 0;
#X connect 19 0 30 0;
#X connect 20 0 31 0;
#X connect 21 0 3 0;
#X connect 22 0 21 0;
#X connect 23 0 21 1;
#X connect 24 0 16 0;
#X connect 25 0 33 0;
#X connect 26 0 27 0;
#X connect 27 0 25 1;
#X connect 28 0 24 0;
#X connect 29 0 33 0;
#X connect 30 0 16 0;
#X connect 31 0 17 0;
#X connect 32 0 3 0;
#X connect 33 0 11 0;
#X connect 34 0 25 0;
#X restore 565 185 pd Sample8;
#X obj 648 396 r Bank1Volume;
#X obj 271 388 r Bank2Volume;
#X connect 1 0 0 0;
#X connect 3 0 2 0;
#X connect 5 0 4 0;
#X connect 7 0 6 0;
#X connect 9 0 8 0;
#X connect 11 0 10 0;
#X connect 13 0 12 0;
#X connect 15 0 14 0;
#X connect 17 0 16 0;
#X connect 19 0 18 0;
#X connect 21 0 20 0;
#X connect 23 0 22 0;
#X connect 24 0 7 0;
#X connect 24 0 57 0;
#X connect 26 0 53 0;
#X connect 27 0 53 1;
#X connect 28 0 54 1;
#X connect 29 0 54 0;
#X connect 30 0 50 0;
#X connect 31 0 50 1;
#X connect 32 0 24 0;
#X connect 33 0 24 1;
#X connect 34 0 51 0;
#X connect 35 0 51 1;
#X connect 36 0 52 0;
#X connect 37 0 52 1;
#X connect 38 0 62 0;
#X connect 39 0 62 1;
#X connect 40 0 63 0;
#X connect 41 0 63 1;
#X connect 42 0 58 0;
#X connect 43 0 58 1;
#X connect 44 0 59 0;
#X connect 45 0 59 1;
#X connect 46 0 60 0;
#X connect 47 0 60 1;
#X connect 48 0 61 0;
#X connect 49 0 61 1;
#X connect 50 0 5 0;
#X connect 50 0 57 0;
#X connect 51 0 9 0;
#X connect 51 0 57 0;
#X connect 52 0 11 0;
#X connect 52 0 57 0;
#X connect 53 0 1 0;
#X connect 53 0 57 0;
#X connect 54 0 3 0;
#X connect 54 0 57 0;
#X connect 55 0 50 0;
#X connect 56 0 25 0;
#X connect 57 0 25 0;
#X connect 58 0 17 0;
#X connect 58 0 56 0;
#X connect 59 0 19 0;
#X connect 59 0 56 0;
#X connect 60 0 21 0;
#X connect 60 0 56 0;
#X connect 61 0 23 0;
#X connect 61 0 56 0;
#X connect 62 0 13 0;
#X connect 62 0 56 0;
#X connect 63 0 15 0;
#X connect 63 0 56 0;
#X connect 64 0 56 1;
#X connect 65 0 57 1;
#X restore 761 647 pd samples;
#X obj 17 19 loadbang;
#X obj 17 111 tgl 15 0 empty empty empty 17 7 0 10 -262144 -1 -1 1
1;
#X msg 17 137 \; pd dsp \$1;
#X obj 46 54 s load;
#X msg 93 20 1;
#X obj 761 749 vu 15 120 empty empty -1 -8 0 10 -66577 -1 1 0;
#X obj 857 751 vu 15 120 empty empty -1 -8 0 10 -66577 -1 1 0;
#N canvas 2 101 450 300 Left 0;
#X obj 83 93 env~;
#X obj 83 115 - 100;
#X obj 83 139 outlet;
#X text 154 85 Prepares Signal for VU Meter;
#X obj 83 69 inlet~;
#X connect 0 0 1 0;
#X connect 1 0 2 0;
#X connect 4 0 0 0;
#X restore 760 723 pd Left;
#N canvas 2 101 450 300 Right 0;
#X obj 83 93 env~;
#X obj 83 115 - 100;
#X obj 83 139 outlet;
#X text 154 85 Prepares Signal for VU Meter;
#X obj 83 69 inlet~;
#X connect 0 0 1 0;
#X connect 1 0 2 0;
#X connect 4 0 0 0;
#X restore 856 725 pd Right;
#N canvas 627 149 909 479 audioMix 0;
#X obj 304 421 outlet~;
#X obj 165 419 outlet~;
#X obj 229 420 dac~ 1 2;
#N canvas 337 113 752 547 FinalStage 0;
#X obj 50 104 inlet~;
#X obj 221 124 inlet;
#X text 38 83 Audio;
#X text 227 85 Volume;
#X obj 188 296 outlet~;
#X obj 62 366 vu 15 120 empty empty -1 -8 0 10 -66577 -1 1 0;
#N canvas 2 101 450 300 Master 0;
#X obj 83 93 env~;
#X obj 83 115 - 100;
#X obj 83 139 outlet;
#X text 154 85 Prepares Signal for VU Meter;
#X obj 83 69 inlet~;
#X connect 0 0 1 0;
#X connect 1 0 2 0;
#X connect 4 0 0 0;
#X restore 61 340 pd Master Mix;
#X obj 250 297 outlet~;
#X obj 172 365 vu 15 120 empty empty -1 -8 0 10 -66577 -1 1 0;
#N canvas 2 101 450 300 Master 0;
#X obj 83 93 env~;
#X obj 83 115 - 100;
#X obj 83 139 outlet;
#X text 154 85 Prepares Signal for VU Meter;
#X obj 83 69 inlet~;
#X connect 0 0 1 0;
#X connect 1 0 2 0;
#X connect 4 0 0 0;
#X restore 171 339 pd Master Mix;
#X obj 271 364 vu 15 120 empty empty -1 -8 0 10 -66577 -1 1 0;
#N canvas 2 101 450 300 Master 0;
#X obj 83 93 env~;
#X obj 83 115 - 100;
#X obj 83 139 outlet;
#X text 154 85 Prepares Signal for VU Meter;
#X obj 83 69 inlet~;
#X connect 0 0 1 0;
#X connect 1 0 2 0;
#X connect 4 0 0 0;
#X restore 270 338 pd Master Mix;
#X obj 91 179 *~;
#X text 242 153 Echo;
#N canvas 720 363 450 300 saveFile 0;
#X obj 174 46 inlet~;
#X obj 300 48;
#X restore 104 133 pd saveFile;
#N canvas 124 145 745 676 echoR 0;
#X obj 110 49 inlet~;
#X text 98 28 Audio;
#X obj 136 528 outlet~;
#X obj 558 339 r echoFeedback;
#X obj 359 470 *~;
#X text 342 299 Echo;
#X obj 465 297 sig~;
#X obj 537 375 *~;
#X obj 540 469 *~;
#X obj 562 433 r echoMix;
#X obj 466 266 r echoTime;
#X obj 465 325 vd~ echoR;
#X obj 384 572 delwrite~ echoR 4000;
#X obj 332 336 r echo;
#X connect 0 0 2 0;
#X connect 0 0 4 0;
#X connect 3 0 7 1;
#X connect 4 0 12 0;
#X connect 6 0 11 0;
#X connect 7 0 4 0;
#X connect 8 0 2 0;
#X connect 9 0 8 1;
#X connect 10 0 6 0;
#X connect 11 0 7 0;
#X connect 11 0 8 0;
#X connect 13 0 4 1;
#X restore 248 250 pd echoR;
#N canvas 122 157 745 676 echoL 0;
#X obj 110 49 inlet~;
#X text 98 28 Audio;
#X obj 136 528 outlet~;
#X obj 558 339 r echoFeedback;
#X obj 359 470 *~;
#X text 346 321 Echo;
#X obj 465 297 sig~;
#X obj 537 375 *~;
#X obj 540 469 *~;
#X obj 562 433 r echoMix;
#X obj 466 265 r echoTime;
#X obj 465 325 vd~ echoL;
#X obj 384 572 delwrite~ echoL 4000;
#X floatatom 337 371 5 0 0 0 - - -, f 5;
#X obj 337 349 r echo;
#X connect 0 0 2 0;
#X connect 0 0 4 0;
#X connect 3 0 7 1;
#X connect 4 0 12 0;
#X connect 6 0 11 0;
#X connect 7 0 4 0;
#X connect 8 0 2 0;
#X connect 9 0 8 1;
#X connect 10 0 6 0;
#X connect 11 0 7 0;
#X connect 11 0 8 0;
#X connect 14 0 4 1;
#X connect 14 0 13 0;
#X restore 186 249 pd echoL;
#N canvas 58 146 319 317 stereoDelay 0;
#X obj 110 49 inlet~;
#X text 98 28 Audio;
#X obj 110 241 outlet~;
#X obj 109 89 delwrite~ delay 4000;
#X obj 109 200 vd~ delay;
#X obj 109 172 sig~;
#X obj 110 140 r delayTime;
#X floatatom 155 173 5 0 0 0 - - -, f 5;
#X connect 0 0 3 0;
#X connect 4 0 2 0;
#X connect 5 0 4 0;
#X connect 6 0 5 0;
#X connect 6 0 7 0;
#X restore 249 225 pd stereoDelay;
#X obj 484 198 == 0;
#X obj 470 241 spigot;
#X obj 533 165 r echo;
#X msg 459 221 0;
#X text 446 134 Stereo Delay Kill;
#X text 391 60 Update on Change of loop BPM;
#X obj 460 333 s delayTime;
#X obj 597 175 r echoTime;
#X obj 597 197 / 2;
#X obj 545 254 spigot;
#X floatatom 545 224 5 0 0 0 - - -, f 5;
#X obj 541 194 t b f;
#X connect 0 0 12 0;
#X connect 0 0 14 0;
#X connect 1 0 12 1;
#X connect 6 0 5 0;
#X connect 9 0 8 0;
#X connect 11 0 10 0;
#X connect 12 0 6 0;
#X connect 12 0 17 0;
#X connect 12 0 16 0;
#X connect 15 0 7 0;
#X connect 15 0 11 0;
#X connect 16 0 4 0;
#X connect 16 0 9 0;
#X connect 17 0 15 0;
#X connect 18 0 19 1;
#X connect 18 0 21 0;
#X connect 19 0 24 0;
#X connect 20 0 18 0;
#X connect 20 0 29 0;
#X connect 21 0 19 0;
#X connect 25 0 26 0;
#X connect 26 0 28 0;
#X connect 27 0 24 0;
#X connect 28 0 27 0;
#X connect 29 0 28 0;
#X connect 29 1 27 1;
#X restore 209 383 pd FinalStage;
#N canvas 0 153 970 676 metronome 0;
#X floatatom 531 146 5 0 0 0 - - -, f 5;
#X floatatom 532 216 5 0 0 0 - - -, f 5;
#X obj 532 184 expr (60/$f1)*1000;
#X text 568 147 bpm;
#X text 556 167 convert to ms;
#X text 575 217 ms;
#X obj 289 412 *~;
#X obj 289 337 vline~;
#X text 389 292 got to 1 (full volume) in 20 \, then go to zero (no
volume) in 20 ms after waiting 20 ms;
#X obj 305 368 osc~ 300;
#X obj 289 469 outlet~;
#X msg 314 206 1, f 2;
#X msg 269 206 0, f 2;
#X text 350 254 bang every 'x' ms;
#X obj 289 255 metro;
#X text 367 369 generate sine tone;
#X obj 262 290 bng 15 250 50 0 empty empty empty 17 7 0 10 -262144
-1 -1;
#X msg 289 288 1 20 \, 0 20 20;
#X obj 288 441 *~ 1.2;
#X obj 184 331 s metroBang;
#X obj 530 119 r loopBPM;
#X obj 255 48 r armRecording;
#X obj 165 104 r RecFinished;
#X connect 0 0 2 0;
#X connect 1 0 14 1;
#X connect 2 0 1 0;
#X connect 6 0 18 0;
#X connect 7 0 6 0;
#X connect 9 0 6 1;
#X connect 11 0 14 0;
#X connect 12 0 14 0;
#X connect 14 0 17 0;
#X connect 14 0 16 0;
#X connect 14 0 19 0;
#X connect 17 0 7 0;
#X connect 18 0 10 0;
#X connect 20 0 0 0;
#X connect 21 0 11 0;
#X connect 22 0 12 0;
#X restore 88 329 pd metronome;
#X obj 203 275 inlet~;
#X obj 297 359 r Volume;
#X connect 3 0 2 0;
#X connect 3 0 1 0;
#X connect 3 1 2 1;
#X connect 3 1 0 0;
#X connect 4 0 3 0;
#X connect 5 0 3 0;
#X connect 6 0 3 1;
#X restore 759 696 pd audioMix;
#X obj 647 150 tgl 30 0 echo echo empty 17 7 0 10 -262144 -1 -1 0 1
;
#X text 686 157 ECHO;
#X obj 880 627 vsl 30 80 0 1 0 0 volumeSet volumeSet Volume 0 -9 0
15 -120941 -1 -1 0 1;
#X obj 435 39 bng 30 250 50 0 loadSamples loadSamples empty 17 7 0
10 -262144 -1 -1;
#X text 407 18 RELOAD SAMPLES;
#X obj 32 266 hsl 250 30 0 10 0 0 playbackSpeed playbackSpeed Sample_Speed
-2 -8 0 15 -262144 -1 -1 2490 1;
#X obj 309 270 hsl 250 30 0 10 0 0 loopSpeed loopSpeed Loop_Speed -2
-8 0 15 -262144 -1 -1 2490 1;
#X obj 383 211 nbx 5 30 70 180 0 0 loopBPM loopBPM LOOP_BPM 0 -8 0
15 -262144 -1 -1 120 256;
#X obj 28 214 nbx 5 30 70 180 0 1 empty sampleBPM SAMPLE_BPM 0 -8 0
15 -228856 -1 -1 132 256;
#X obj 595 588 bng 30 250 50 0 stopLoop empty PAUSE -2 -9 0 12 -262144
-1 -1;
#X obj 652 587 bng 30 250 50 0 playLoop empty PLAY 0 -9 0 12 -262144
-1 -1;
#X obj 540 650 bng 30 250 50 0 clearLoop clearLoop CLEAR -2 -9 0 12
-262144 -1 -1;
#X obj 640 64 hsl 250 30 0 1 0 0 reRecordVol reRecordVol RE-RECORD-PERCENTAGE
-2 -8 0 15 -262144 -1 -1 19920 1;
#X floatatom 639 102 5 0 0 0 - reRecordVol -, f 5;
#X obj 719 502 tgl 30 1 invertLoop invertLoop REVERSE_LOOP -25 -8 0
12 -262144 -1 -1 0 1;
#X obj 591 899 tgl 30 1 empty isRecordingLoop RECORDING 2 -9 0 12 -258113
-1 -1 1 1;
#X obj 533 898 tgl 30 1 empty isPlayingLoop PLAYING 2 -9 0 12 -4034
-1 -1 1 1;
#X obj 703 587 bng 30 250 50 0 restartLoop empty RESTART -2 -9 0 12
-262144 -1 -1;
#X obj 534 502 nbx 5 30 1 32 0 0 NumBars NumBars Num_Beats 0 -8 0 15
-262144 -1 -1 16 256;
#X obj 136 215 nbx 5 30 0 10000 0 1 actBPM actBPM ACTUAL_BPM 0 -8 0
15 -228856 -1 -1 0 256;
#X obj 480 211 nbx 5 30 0 100000 0 1 empty actLoopBPM ACTUAL_LOOP_BPM
0 -8 0 15 -228856 -1 -1 0 256;
#X obj 540 588 bng 30 250 50 0 resetLoop empty STOP -2 -9 0 12 -262144
-1 -1;
#X obj 595 650 bng 30 250 50 0 newRecord empty NEW-REC -6 -9 0 12 -262144
-1 -1;
#X obj 286 209 tgl 30 0 linkBPM linkBPM LINK_TO_SAMPLE -30 -9 0 12
-262144 -1 -1 1 1;
#X obj 652 649 tgl 30 1 reRecord reRecord RE-REC -4 -8 0 12 -262144
-1 -1 1 1;
#N canvas 856 230 933 562 Init 1;
#X obj 27 26 r load;
#X obj 27 70 s NumBars;
#X obj 115 161 r load;
#X obj 113 208 s linkBPM;
#X msg 115 183 1;
#X obj 20 164 r load;
#X obj 20 208 s loopSpeed;
#X msg 20 186 1;
#X obj 197 161 r load;
#X msg 197 183 1;
#X obj 61 259 r load;
#X obj 61 303 s reRecordVol;
#X obj 201 260 r load;
#X obj 34 396 r load;
#X obj 35 440 s playOnce;
#X obj 33 481 r load;
#X obj 34 525 s playThrough;
#X msg 34 503 1;
#X obj 788 479 r load;
#X obj 257 482 r load;
#X obj 789 523 s echo;
#X obj 258 526 s invertPlayback;
#X msg 258 504 0;
#X obj 394 398 r load;
#X obj 393 483 r load;
#X msg 394 505 0;
#X obj 394 527 s metronomeON;
#X obj 395 442 s metronomeRec;
#X msg 396 420 1;
#X obj 411 266 r load;
#X obj 412 310 s loopBPM;
#X msg 410 289 120;
#X obj 146 359 r load;
#X obj 143 482 r load;
#X msg 146 412 1;
#X obj 144 526 s effectPlayAll;
#X obj 145 441 s effectOnce;
#X msg 144 504 0;
#X msg 35 418 0;
#X obj 146 386 del 80;
#X obj 512 264 s sampleLoadDelay;
#X obj 512 214 r load;
#X obj 497 34 r loadSamples;
#X obj 497 127 del;
#X obj 515 57 r sampleLoadDelay;
#X obj 515 95 * 6;
#X obj 496 158 s playbackSpeed;
#X msg 513 236 2;
#X obj 661 28 r loadSamples;
#X obj 661 121 del;
#X obj 679 51 r sampleLoadDelay;
#X obj 679 89 * 6;
#X obj 660 152 s playbackSpeed;
#X obj 673 194 r loadSamples;
#X obj 673 287 del;
#X obj 691 217 r sampleLoadDelay;
#X obj 691 255 * 6;
#X obj 672 318 s effectSpeed;
#X msg 62 280 0.8;
#X obj 511 336 s loopLoadDelay;
#X obj 512 293 r load;
#X obj 329 215 r load;
#X obj 653 393 r load;
#X obj 653 437 s echoMix;
#X obj 727 391 r load;
#X obj 727 435 s echoFeedback;
#X msg 727 412 0.6;
#X obj 576 484 r load;
#X obj 663 484 r load;
#X obj 663 528 s delayTime;
#X msg 663 505 400;
#X obj 576 528 s echoTime;
#X msg 577 505 400;
#X msg 653 414 0.5;
#X msg 789 501 0;
#X text 342 238 For LED;
#X obj 329 344 s startReRecord;
#X msg 328 305 1;
#X obj 318 270 del 5000;
#X obj 270 396 delay 100;
#X obj 298 369 s startSaving;
#X obj 269 426 s stopSaving;
#X obj 102 27 r load;
#X obj 102 71 s countInBeats;
#X obj 238 30 r load;
#X obj 238 74 s singleSample;
#X msg 240 52 1;
#X obj 355 31 r load;
#X obj 355 75 s singleLoop;
#X msg 357 53 0;
#X msg 29 48 16;
#X msg 102 49 4;
#X obj 197 205 s playbackSpeed;
#X obj 201 304 s Volume;
#X msg 200 282 0.5;
#X msg 513 315 10;
#X connect 0 0 90 0;
#X connect 2 0 4 0;
#X connect 4 0 3 0;
#X connect 5 0 7 0;
#X connect 7 0 6 0;
#X connect 8 0 9 0;
#X connect 9 0 92 0;
#X connect 10 0 58 0;
#X connect 12 0 94 0;
#X connect 13 0 38 0;
#X connect 15 0 17 0;
#X connect 17 0 16 0;
#X connect 18 0 74 0;
#X connect 19 0 22 0;
#X connect 22 0 21 0;
#X connect 23 0 28 0;
#X connect 24 0 25 0;
#X connect 25 0 26 0;
#X connect 28 0 27 0;
#X connect 29 0 31 0;
#X connect 31 0 30 0;
#X connect 32 0 39 0;
#X connect 33 0 37 0;
#X connect 34 0 36 0;
#X connect 37 0 35 0;
#X connect 38 0 14 0;
#X connect 39 0 34 0;
#X connect 41 0 47 0;
#X connect 42 0 43 0;
#X connect 43 0 46 0;
#X connect 44 0 45 0;
#X connect 45 0 43 1;
#X connect 47 0 40 0;
#X connect 48 0 49 0;
#X connect 49 0 52 0;
#X connect 50 0 51 0;
#X connect 51 0 49 1;
#X connect 53 0 54 0;
#X connect 54 0 57 0;
#X connect 55 0 56 0;
#X connect 56 0 54 1;
#X connect 58 0 11 0;
#X connect 60 0 95 0;
#X connect 61 0 78 0;
#X connect 62 0 73 0;
#X connect 64 0 66 0;
#X connect 66 0 65 0;
#X connect 67 0 72 0;
#X connect 68 0 70 0;
#X connect 70 0 69 0;
#X connect 72 0 71 0;
#X connect 73 0 63 0;
#X connect 74 0 20 0;
#X connect 77 0 76 0;
#X connect 78 0 77 0;
#X connect 78 0 79 0;
#X connect 78 0 80 0;
#X connect 79 0 81 0;
#X connect 82 0 91 0;
#X connect 84 0 86 0;
#X connect 86 0 85 0;
#X connect 87 0 89 0;
#X connect 89 0 88 0;
#X connect 90 0 1 0;
#X connect 91 0 83 0;
#X connect 94 0 93 0;
#X connect 95 0 59 0;
#X restore 160 141 pd Init;
#N canvas 639 335 1588 613 bpmCalculator 0;
#X floatatom 48 139 5 0 0 0 - - -, f 5;
#X obj 86 223 /;
#X obj 77 274 s sampleSpeedRatio;
#X obj 104 184 s bpm;
#X obj 28 221 r load;
#X msg 28 245 1;
#X floatatom 712 89 5 0 0 0 - - -, f 5;
#X obj 693 192 /;
#X obj 656 443 s loopNumSamples;
#X floatatom 745 220 6 0 0 0 - - -, f 6;
#X obj 606 121 *;
#X obj 601 62 r NumBars;
#X floatatom 641 169 6 0 0 0 - - -, f 6;
#N canvas 784 227 887 706 bpmFromText 0;
#X obj 99 338 textfile;
#X obj 95 27 bng 15 250 50 0 empty empty empty 0 -6 0 8 -262144 -1
-1;
#X obj 141 107 t b b b b b;
#X msg 203 200 rewind;
#X obj 161 283 metro 500;
#X msg 220 246 stop;
#X msg 224 146 read bpm.txt cr;
#X obj 139 52 inlet;
#X text 117 23 <---click here;
#X msg 219 338 0;
#X obj 99 403 unpack f;
#X obj 130 617 outlet;
#N canvas 2 101 450 300 divideSafe 0;
#X floatatom 111 74 5 0 0 0 - - -, f 5;
#X floatatom 208 167 5 0 0 0 - - -, f 5;
#X obj 157 125 != 0;
#X obj 121 168 spigot;
#X floatatom 121 190 5 0 0 0 - - -, f 5;
#X obj 110 38 inlet;
#X obj 118 229 outlet;
#X connect 0 0 2 0;
#X connect 0 0 3 0;
#X connect 2 0 1 0;
#X connect 2 0 3 1;
#X connect 3 0 4 0;
#X connect 4 0 6 0;
#X connect 5 0 0 0;
#X restore 60 507 pd divideSafe;
#X floatatom 71 466 5 0 0 0 - - -, f 5;
#X connect 0 0 10 0;
#X connect 0 1 5 0;
#X connect 1 0 2 0;
#X connect 2 1 4 0;
#X connect 2 3 3 0;
#X connect 2 4 6 0;
#X connect 3 0 0 0;
#X connect 4 0 0 0;
#X connect 5 0 4 0;
#X connect 6 0 0 0;
#X connect 7 0 2 0;
#X connect 9 0 10 0;
#X connect 10 0 13 0;
#X connect 12 0 11 0;
#X connect 13 0 12 0;
#X restore 75 83 pd bpmFromText;
#X obj 75 58 bng 15 250 50 0 empty empty empty 17 7 0 10 -262144 -1
-1;
#X obj 75 32 r loadSamples;
#X obj 94 137 s sampleBPM;
#X obj 712 58 r loopBPM;
#N canvas 2 119 450 300 relativeBPM 0;
#X obj 132 29 inlet;
#X obj 137 238 outlet;
#X obj 205 57 r bpm;
#X obj 145 145 *;
#X floatatom 121 116 5 0 0 0 - - -, f 5;
#X obj 159 93 bng 15 250 50 0 empty empty empty 17 7 0 10 -262144 -1
-1;
#X connect 0 0 4 0;
#X connect 2 0 3 1;
#X connect 2 0 5 0;
#X connect 3 0 1 0;
#X connect 4 0 3 0;
#X connect 5 0 4 0;
#X restore 475 363 pd relativeBPM;
#X floatatom 475 385 5 0 0 0 - - -, f 5;
#N canvas 2 119 450 300 relativeBPM 0;
#X obj 132 29 inlet;
#X obj 137 238 outlet;
#X obj 189 70 r bpm;
#X obj 145 145 *;
#X floatatom 122 108 5 0 0 0 - - -, f 5;
#X obj 153 87 bng 15 250 50 0 empty empty empty 17 7 0 10 -262144 -1
-1;
#X connect 0 0 4 0;
#X connect 2 0 3 1;
#X connect 2 0 5 0;
#X connect 3 0 1 0;
#X connect 4 0 3 0;
#X connect 5 0 4 0;
#X restore 160 398 pd relativeBPM;
#X floatatom 160 420 5 0 0 0 - - -, f 5;
#X obj 202 419 s actBPM;
#X obj 519 383 s actLoopBPM;
#X obj 160 353 r playbackSpeed;
#X floatatom 176 377 5 0 0 0 - - -, f 5;
#X obj 475 339 r loopSpeed;
#X msg 626 93 60;
#X obj 745 270 s loopTimems;
#X obj 745 241 * 1000;
#X text 542 216 60 * NumBars / bpm;
#X obj 658 321 * 44100;
#X floatatom 671 353 10 0 0 0 - - -, f 10;
#X text 795 217 Loop Time (s);
#X msg 804 352 352800;
#X obj 783 383 /;
#X floatatom 782 410 5 0 0 0 - - -, f 5;
#X obj 890 432 s playBarMultiplier;
#X obj 327 27 r linkBPM;
#X obj 286 150 spigot;
#X floatatom 346 55 5 0 0 0 - - -, f 5;
#X obj 701 137 t b f;
#X obj 286 217 spigot;
#X obj 327 174 r emptyTrack;
#X text 220 120 Dont' load new BPM if not Empty;
#X obj 1009 100 bng 15 250 50 0 empty empty empty 17 7 0 10 -262144
-1 -1;
#X floatatom 1161 139 12 0 0 0 - - -, f 12;
#X obj 1161 112 r loopNumSamples;
#X obj 1013 259 bng 15 250 50 0 empty empty empty 17 7 0 10 -262144
-1 -1;
#X obj 1042 256 print;
#X msg 916 136 symbol theLoop;
#X msg 1033 287 \; \$1 \$2 \$3;
#X msg 1045 226 \$1 \$2 \$3;
#X obj 1010 74 r reSizeLoop;
#X floatatom 590 96 5 0 0 0 - - -, f 5;
#X obj 1014 184 pack s s f;
#X msg 1037 137 symbol resize;
#X obj 1262 200 bng 15 250 50 0 empty empty empty 17 7 0 10 -262144
-1 -1;
#X obj 1266 360 bng 15 250 50 0 empty empty empty 17 7 0 10 -262144
-1 -1;
#X obj 1292 359 print;
#X msg 1169 237 symbol theLoop;
#X msg 1290 238 symbol xticks;
#X obj 1267 285 pack s s f f f;
#X msg 1405 238 0;
#X msg 1491 239 4;
#X floatatom 1443 240 5 0 0 0 - - -, f 5;
#X msg 1286 388 \; \$1 \$2 \$3 \$4 \$5;
#X msg 1298 327 \$1 \$2 \$3 \$4 \$5;
#X obj 1434 201 /;
#X obj 1448 131 r NumBars;
#X obj 1421 106 r loopNumSamples;
#X obj 1450 167 * 4;
#X msg 891 392 1;
#X obj 75 105 bng 15 250 50 0 empty empty empty 17 7 0 10 -262144 -1
-1;
#N canvas 2 107 450 300 divideSafe 0;
#X floatatom 111 74 5 0 0 0 - - -, f 5;
#X floatatom 208 167 5 0 0 0 - - -, f 5;
#X obj 157 125 != 0;
#X obj 121 168 spigot;
#X floatatom 121 190 5 0 0 0 - - -, f 5;
#X obj 110 38 inlet;
#X obj 118 229 outlet;
#X connect 0 0 2 0;
#X connect 0 0 3 0;
#X connect 2 0 1 0;
#X connect 2 0 3 1;
#X connect 3 0 4 0;
#X connect 4 0 6 0;
#X connect 5 0 0 0;
#X restore 714 168 pd divideSafe;
#N canvas 2 131 450 300 divideSafe 0;
#X floatatom 111 74 5 0 0 0 - - -, f 5;
#X floatatom 208 167 5 0 0 0 - - -, f 5;
#X obj 157 125 != 0;
#X obj 121 168 spigot;
#X floatatom 121 190 5 0 0 0 - - -, f 5;
#X obj 110 38 inlet;
#X obj 118 229 outlet;
#X connect 0 0 2 0;
#X connect 0 0 3 0;
#X connect 2 0 1 0;
#X connect 2 0 3 1;
#X connect 3 0 4 0;
#X connect 4 0 6 0;
#X connect 5 0 0 0;
#X restore 665 398 pd divideSafe;
#X obj 302 255 s loopBPM;
#X obj 425 488 /;
#X floatatom 422 519 12 0 0 0 - - -, f 12;
#X msg 405 459 1000;
#X obj 443 437 / 60;
#X obj 391 540 s echoTime;
#X obj 1040 370 r loopTimems;
#X obj 1070 448 /;
#X obj 1111 398 r NumBars;
#X obj 1084 481 s beatTime;
#X obj 1026 524 *;
#X obj 1077 506 r countInBeats;
#X obj 1022 565 s countInTime;
#X obj 10 63 r armRecording;
#X floatatom 349 209 5 0 0 0 - - -, f 5;
#X connect 0 0 1 1;
#X connect 0 0 3 0;
#X connect 0 0 39 0;
#X connect 1 0 2 0;
#X connect 4 0 5 0;
#X connect 5 0 2 0;
#X connect 6 0 41 0;
#X connect 7 0 9 0;
#X connect 7 0 31 0;
#X connect 9 0 29 0;
#X connect 10 0 12 0;
#X connect 11 0 27 0;
#X connect 11 0 54 0;
#X connect 12 0 7 0;
#X connect 13 0 16 0;
#X connect 13 0 0 0;
#X connect 13 0 73 0;
#X connect 14 0 13 0;
#X connect 15 0 14 0;
#X connect 17 0 6 0;
#X connect 18 0 19 0;
#X connect 18 0 23 0;
#X connect 18 0 1 0;
#X connect 18 0 80 0;
#X connect 20 0 21 0;
#X connect 20 0 22 0;
#X connect 24 0 20 0;
#X connect 24 0 25 0;
#X connect 26 0 18 0;
#X connect 27 0 10 1;
#X connect 29 0 28 0;
#X connect 31 0 32 0;
#X connect 31 0 34 0;
#X connect 32 0 35 0;
#X connect 32 0 75 0;
#X connect 34 0 35 1;
#X connect 35 0 36 0;
#X connect 35 0 72 0;
#X connect 38 0 39 1;
#X connect 38 0 40 0;
#X connect 39 0 42 0;
#X connect 41 0 12 0;
#X connect 41 0 18 0;
#X connect 41 1 74 0;
#X connect 42 0 76 0;
#X connect 43 0 42 1;
#X connect 43 0 90 0;
#X connect 45 0 46 0;
#X connect 45 0 50 0;
#X connect 45 0 56 0;
#X connect 45 0 57 0;
#X connect 46 0 55 2;
#X connect 47 0 46 0;
#X connect 50 0 55 0;
#X connect 52 0 49 0;
#X connect 53 0 45 0;
#X connect 54 0 10 0;
#X connect 55 0 48 0;
#X connect 55 0 52 0;
#X connect 55 0 51 0;
#X connect 56 0 55 1;
#X connect 57 0 60 0;
#X connect 57 0 61 0;
#X connect 57 0 63 0;
#X connect 57 0 65 0;
#X connect 57 0 64 0;
#X connect 60 0 62 0;
#X connect 61 0 62 1;
#X connect 62 0 58 0;
#X connect 62 0 67 0;
#X connect 62 0 66 0;
#X connect 63 0 62 2;
#X connect 64 0 62 4;
#X connect 65 0 62 3;
#X connect 67 0 59 0;
#X connect 68 0 65 0;
#X connect 69 0 71 0;
#X connect 70 0 68 0;
#X connect 71 0 68 1;
#X connect 72 0 37 0;
#X connect 74 0 7 1;
#X connect 75 0 8 0;
#X connect 77 0 78 0;
#X connect 77 0 81 0;
#X connect 79 0 77 0;
#X connect 80 0 77 1;
#X connect 80 0 79 0;
#X connect 82 0 83 0;
#X connect 83 0 85 0;
#X connect 83 0 86 0;
#X connect 84 0 83 1;
#X connect 86 0 88 0;
#X connect 87 0 86 1;
#X connect 89 0 0 0;
#X restore 339 113 pd bpmCalculator;
#X obj 706 651 tgl 30 0 metronomeRec metronomeRec METRO -3 -8 0 12
-262144 -1 -1 1 1;
#X text 543 548 -----------LOOP-------------;
#X obj 36 903 bng 30 250 50 0 startSaving empty START-SAVE -2 -9 0
12 -260097 -1 -1;
#X obj 125 904 bng 30 250 50 0 stopSaving empty STOP-SAVE -6 -9 0 12
-260097 -1 -1;
#X text 174 909 Real Time Save;
#X obj 283 904 tgl 30 1 empty savingToDisk IS_SAVING -4 -8 0 12 -260097
-1 -1 0 1;
#X obj 645 501 bng 30 250 50 0 reSizeLoop empty RESIZE -2 -9 0 12 -262144
-1 -1;
#N canvas 331 189 1119 784 OSC_In 0;
#X obj 44 28 netreceive 3000;
#X obj 20 394 s on_1;
#X obj 52 421 s on_2;
#X obj 89 394 s on_5;
#X obj 92 442 s on_3;
#X obj 124 469 s on_4;
#X obj 121 421 s on_6;
#X obj 161 442 s on_7;
#X obj 193 469 s on_8;
#X obj 158 392 s on_9;
#X obj 190 419 s on_10;
#X obj 230 439 s on_11;
#X obj 264 467 s on_12;
#X text 74 330 MSG 13 = Note ON;
#X text 335 335 MSG 14 = Note ON;
#X obj 281 399 s off_1;
#X obj 313 426 s off_2;
#X obj 353 447 s off_3;
#X obj 385 474 s off_4;
#X obj 454 474 s off_8;
#X obj 422 447 s off_7;
#X obj 382 426 s off_6;
#X obj 350 399 s off_5;
#X obj 419 397 s off_9;
#X obj 452 424 s off_10;
#X obj 491 444 s off_11;
#X obj 526 472 s off_12;
#X obj 281 196 route 1 2 3 4;
#X obj 273 265 s CC1;
#X obj 322 286 s CC2;
#X obj 337 257 s CC3;
#X obj 385 250 s CC4;
#X obj 108 161 print;
#X obj 344 43 print NOCAT;
#X obj 409 226 print NOCC;
#X obj 253 508 bng 15 250 50 0 empty empty empty 17 7 0 10 -262144
-1 -1;
#N canvas 2 95 1604 331 SingleSampleControl 0;
#X obj 493 63 r on_8;
#X obj 637 62 r on_9;
#X obj 731 63 r on_10;
#X obj 860 62 r on_11;
#X obj 970 65 r on_12;
#X obj 318 196 s stop_7;
#X obj 490 187 s stop_8;
#X obj 630 185 s stop_9;
#X obj 727 186 s stop_10;
#X obj 860 189 s stop_11;
#X obj 975 188 s stop_12;
#X obj 313 93 spigot;
#X obj 310 64 r on_7;
#X obj 1144 76 r singleSample;
#X obj 492 93 spigot;
#X obj 637 92 spigot;
#X obj 736 97 spigot;
#X obj 862 96 spigot;
#X obj 974 99 spigot;
#X connect 0 0 14 0;
#X connect 1 0 15 0;
#X connect 2 0 16 0;
#X connect 3 0 17 0;
#X connect 4 0 18 0;
#X connect 11 0 6 0;
#X connect 11 0 7 0;
#X connect 11 0 8 0;
#X connect 11 0 9 0;
#X connect 11 0 10 0;
#X connect 12 0 11 0;
#X connect 13 0 18 1;
#X connect 13 0 17 1;
#X connect 13 0 16 1;
#X connect 13 0 15 1;
#X connect 13 0 14 1;
#X connect 13 0 11 1;
#X connect 14 0 5 0;
#X connect 14 0 7 0;
#X connect 14 0 8 0;
#X connect 14 0 9 0;
#X connect 14 0 10 0;
#X connect 15 0 5 0;
#X connect 15 0 6 0;
#X connect 15 0 8 0;
#X connect 15 0 9 0;
#X connect 15 0 10 0;
#X connect 16 0 10 0;
#X connect 16 0 9 0;
#X connect 16 0 7 0;
#X connect 16 0 6 0;
#X connect 16 0 5 0;
#X connect 17 0 10 0;
#X connect 17 0 8 0;
#X connect 17 0 7 0;
#X connect 17 0 6 0;
#X connect 17 0 5 0;
#X connect 18 0 9 0;
#X connect 18 0 8 0;
#X connect 18 0 7 0;
#X connect 18 0 6 0;
#X connect 18 0 5 0;
#X restore 313 589 pd SingleSampleControl;
#N canvas 2 101 1604 331 SingleLoopControl 0;
#X obj 313 93 spigot;
#X obj 492 93 spigot;
#X obj 637 92 spigot;
#X obj 736 97 spigot;
#X obj 862 96 spigot;
#X obj 974 99 spigot;
#X obj 310 64 r on_1;
#X obj 493 63 r on_2;
#X obj 637 62 r on_3;
#X obj 731 63 r on_4;
#X obj 860 62 r on_5;
#X obj 970 65 r on_6;
#X obj 1144 76 r singleLoop;
#X obj 318 196 s stop_1;
#X obj 490 187 s stop_2;
#X obj 630 185 s stop_3;
#X obj 727 186 s stop_4;
#X obj 860 189 s stop_5;
#X obj 975 188 s stop_6;
#X connect 0 0 14 0;
#X connect 0 0 15 0;
#X connect 0 0 16 0;
#X connect 0 0 17 0;
#X connect 0 0 18 0;
#X connect 1 0 13 0;
#X connect 1 0 15 0;
#X connect 1 0 16 0;
#X connect 1 0 17 0;
#X connect 1 0 18 0;
#X connect 2 0 13 0;
#X connect 2 0 14 0;
#X connect 2 0 16 0;
#X connect 2 0 17 0;
#X connect 2 0 18 0;
#X connect 3 0 13 0;
#X connect 3 0 14 0;
#X connect 3 0 15 0;
#X connect 3 0 17 0;
#X connect 3 0 18 0;
#X connect 4 0 13 0;
#X connect 4 0 14 0;
#X connect 4 0 15 0;
#X connect 4 0 16 0;
#X connect 4 0 18 0;
#X connect 5 0 13 0;
#X connect 5 0 14 0;
#X connect 5 0 15 0;
#X connect 5 0 16 0;
#X connect 5 0 17 0;
#X connect 6 0 0 0;
#X connect 7 0 1 0;
#X connect 8 0 2 0;
#X connect 9 0 3 0;
#X connect 10 0 4 0;
#X connect 11 0 5 0;
#X connect 12 0 5 1;
#X connect 12 0 4 1;
#X connect 12 0 3 1;
#X connect 12 0 2 1;
#X connect 12 0 1 1;
#X connect 12 0 0 1;
#X restore 317 630 pd SingleLoopControl;
#X obj 264 141 s loadBank1;
#X obj 273 118 s loadBank2;
#X obj 106 84 route ON OFF CC BTN BANK1 BANK2 TIME;
#X obj 39 348 route 11 9 7 6 4 2 12 10 8 5 3 1;
#X obj 296 353 route 11 9 7 6 4 2 12 10 8 5 3 1;
#X connect 0 0 40 0;
#X connect 27 0 28 0;
#X connect 27 1 29 0;
#X connect 27 2 30 0;
#X connect 27 3 31 0;
#X connect 27 4 34 0;
#X connect 40 0 32 0;
#X connect 40 0 41 0;
#X connect 40 1 42 0;
#X connect 40 2 27 0;
#X connect 40 4 38 0;
#X connect 40 5 39 0;
#X connect 40 7 33 0;
#X connect 41 0 1 0;
#X connect 41 1 2 0;
#X connect 41 2 4 0;
#X connect 41 3 5 0;
#X connect 41 4 3 0;
#X connect 41 5 6 0;
#X connect 41 6 7 0;
#X connect 41 7 8 0;
#X connect 41 8 9 0;
#X connect 41 9 10 0;
#X connect 41 10 11 0;
#X connect 41 11 12 0;
#X connect 41 11 35 0;
#X connect 42 0 15 0;
#X connect 42 1 16 0;
#X connect 42 2 17 0;
#X connect 42 3 18 0;
#X connect 42 4 22 0;
#X connect 42 5 21 0;
#X connect 42 6 20 0;
#X connect 42 7 19 0;
#X connect 42 8 23 0;
#X connect 42 9 24 0;
#X connect 42 10 25 0;
#X connect 42 11 26 0;
#X restore 160 114 pd OSC_In;
#X obj 30 358 hsl 250 30 0 10 0 0 EffectSpeed EffectSpeed Effect_Speed
-2 -8 0 15 -262144 -1 -1 0 1;
#N canvas 588 338 576 415 OSC_Out 0;
#X msg 132 101 1;
#X obj 99 43 bng 15 250 50 0 empty empty empty 17 7 0 10 -262144 -1
-1;
#X msg 176 103 2;
#X obj 146 38 bng 15 250 50 0 empty empty empty 17 7 0 10 -262144 -1
-1;
#X obj 27 230 print OUT;
#X msg 198 175 disconnect;
#X msg 102 181 send LED \$1;
#X obj 124 216 netsend 3001;
#X msg 199 147 connect localhsot 3001;
#X connect 0 0 6 0;
#X connect 1 0 0 0;
#X connect 2 0 6 0;
#X connect 3 0 2 0;
#X connect 5 0 7 0;
#X connect 6 0 4 0;
#X connect 6 0 7 0;
#X connect 8 0 7 0;
#X restore 239 115 pd OSC_Out;
#N canvas 997 422 576 415 MIDI_Out 0;
#X obj 151 390 noteout;
#X msg 118 239 1, f 2;
#X msg 84 145 1;
#X msg 84 173 0;
#N canvas 2 95 450 300 LED 0;
#X obj 143 57 inlet;
#X obj 177 182 outlet;
#X obj 161 104 t f b;
#X obj 125 129 select 1 0;
#X text 113 28 1 or 0 is ON or OFF;
#X msg 73 184 127;
#X msg 116 181 0;
#X obj 108 232 outlet;
#X obj 39 238 outlet;
#X msg 46 212 60;
#X connect 0 0 2 0;
#X connect 2 0 3 0;
#X connect 2 1 1 0;
#X connect 3 0 5 0;
#X connect 3 1 6 0;
#X connect 5 0 7 0;
#X connect 5 0 9 0;
#X connect 6 0 7 0;
#X connect 6 0 9 0;
#X connect 9 0 8 0;
#X restore 78 212 pd LED;
#X msg 144 144 1;
#X msg 144 172 0;
#N canvas 2 101 450 300 LED 0;
#X obj 143 57 inlet;
#X obj 177 182 outlet;
#X obj 161 104 t f b;
#X obj 125 129 select 1 0;
#X text 113 28 1 or 0 is ON or OFF;
#X msg 73 184 127;
#X msg 116 181 0;
#X obj 108 232 outlet;
#X obj 39 238 outlet;
#X msg 46 212 60;
#X connect 0 0 2 0;
#X connect 2 0 3 0;
#X connect 2 1 1 0;
#X connect 3 0 5 0;
#X connect 3 1 6 0;
#X connect 5 0 7 0;
#X connect 5 0 9 0;
#X connect 6 0 7 0;
#X connect 6 0 9 0;
#X connect 9 0 8 0;
#X restore 138 211 pd LED;
#X msg 207 144 1;
#X msg 207 172 0;
#N canvas 2 101 450 300 LED 0;
#X obj 143 57 inlet;
#X obj 177 182 outlet;
#X obj 161 104 t f b;
#X obj 125 129 select 1 0;
#X text 113 28 1 or 0 is ON or OFF;
#X msg 73 184 127;
#X msg 116 181 0;
#X obj 108 232 outlet;
#X obj 39 238 outlet;
#X msg 46 212 60;
#X connect 0 0 2 0;
#X connect 2 0 3 0;
#X connect 2 1 1 0;
#X connect 3 0 5 0;
#X connect 3 1 6 0;
#X connect 5 0 7 0;
#X connect 5 0 9 0;
#X connect 6 0 7 0;
#X connect 6 0 9 0;
#X connect 9 0 8 0;
#X restore 201 211 pd LED;
#X msg 267 143 1;
#X msg 267 171 0;
#N canvas 2 107 450 300 LED 0;
#X obj 143 57 inlet;
#X obj 177 182 outlet;
#X obj 161 104 t f b;
#X obj 125 129 select 1 0;
#X text 113 28 1 or 0 is ON or OFF;
#X msg 73 184 127;
#X msg 116 181 0;
#X obj 108 232 outlet;
#X obj 39 238 outlet;
#X msg 46 212 60;
#X connect 0 0 2 0;
#X connect 2 0 3 0;
#X connect 2 1 1 0;
#X connect 3 0 5 0;
#X connect 3 1 6 0;
#X connect 5 0 7 0;
#X connect 5 0 9 0;
#X connect 6 0 7 0;
#X connect 6 0 9 0;
#X connect 9 0 8 0;
#X restore 261 210 pd LED;
#X msg 331 140 1;
#X msg 331 168 0;
#N canvas 2 107 450 300 LED 0;
#X obj 143 57 inlet;
#X obj 177 182 outlet;
#X obj 161 104 t f b;
#X obj 125 129 select 1 0;
#X text 113 28 1 or 0 is ON or OFF;
#X msg 73 184 127;
#X msg 116 181 0;
#X obj 108 232 outlet;
#X obj 39 238 outlet;
#X msg 46 212 60;
#X connect 0 0 2 0;
#X connect 2 0 3 0;
#X connect 2 1 1 0;
#X connect 3 0 5 0;
#X connect 3 1 6 0;
#X connect 5 0 7 0;
#X connect 5 0 9 0;
#X connect 6 0 7 0;
#X connect 6 0 9 0;
#X connect 9 0 8 0;
#X restore 325 207 pd LED;
#X msg 391 139 1;
#X msg 391 167 0;
#N canvas 2 113 450 300 LED 0;
#X obj 143 57 inlet;
#X obj 177 182 outlet;
#X obj 161 104 t f b;
#X obj 125 129 select 1 0;
#X text 113 28 1 or 0 is ON or OFF;
#X msg 73 184 127;
#X msg 116 181 0;
#X obj 108 232 outlet;
#X obj 39 238 outlet;
#X msg 46 212 60;
#X connect 0 0 2 0;
#X connect 2 0 3 0;
#X connect 2 1 1 0;
#X connect 3 0 5 0;
#X connect 3 1 6 0;
#X connect 5 0 7 0;
#X connect 5 0 9 0;
#X connect 6 0 7 0;
#X connect 6 0 9 0;
#X connect 9 0 8 0;
#X restore 385 206 pd LED;
#X msg 178 238 2, f 2;
#X msg 241 238 3, f 2;
#X msg 301 237 4, f 2;
#X msg 365 234 5, f 2;
#X msg 425 233 6, f 2;
#X obj 76 97 r LED1;
#X obj 137 101 r LED2;
#X obj 201 99 r LED3;
#X obj 272 103 r LED4;
#X obj 326 105 r LED5;
#X obj 386 105 r LED6;
#X connect 1 0 0 2;
#X connect 2 0 4 0;
#X connect 3 0 4 0;
#X connect 4 0 0 0;
#X connect 4 1 0 1;
#X connect 4 2 1 0;
#X connect 5 0 7 0;
#X connect 6 0 7 0;
#X connect 7 0 0 0;
#X connect 7 1 0 1;
#X connect 7 2 20 0;
#X connect 8 0 10 0;
#X connect 9 0 10 0;
#X connect 10 0 0 0;
#X connect 10 1 0 1;
#X connect 10 2 21 0;
#X connect 11 0 13 0;
#X connect 12 0 13 0;
#X connect 13 0 0 0;
#X connect 13 1 0 1;
#X connect 13 2 22 0;
#X connect 14 0 16 0;
#X connect 15 0 16 0;
#X connect 16 0 0 0;
#X connect 16 1 0 1;
#X connect 16 2 23 0;
#X connect 17 0 19 0;
#X connect 18 0 19 0;
#X connect 19 0 0 0;
#X connect 19 1 0 1;
#X connect 19 2 24 0;
#X connect 20 0 0 2;
#X connect 21 0 0 2;
#X connect 22 0 0 2;
#X connect 23 0 0 2;
#X connect 24 0 0 2;
#X connect 25 0 4 0;
#X connect 26 0 7 0;
#X connect 27 0 10 0;
#X connect 28 0 13 0;
#X connect 29 0 16 0;
#X connect 30 0 19 0;
#X restore 240 141 pd MIDI_Out;
#N canvas 137 191 1424 300 LEDs 0;
#X obj 1311 188 s LED6;
#X obj 961 117 r reRecord;
#X obj 929 210 s LED5;
#X msg 573 94 1;
#X msg 607 94 0;
#X obj 279 83 r invertPlayback;
#X obj 342 147 s LED3;
#X obj 105 150 s LED1;
#X obj 104 88 r echo;
#X obj 1309 78 r playState;
#X obj 176 88 r savingToDisk;
#X obj 177 150 s LED2;
#X obj 566 233 s LED4;
#X obj 558 166 spigot;
#X floatatom 601 138 5 0 0 0 - - -, f 5;
#X obj 468 43 r metroBang;
#X obj 456 78 delay 100;
#X msg 497 111 1;
#X msg 531 111 0;
#X floatatom 518 140 5 0 0 0 - - -, f 5;
#N canvas 2 101 534 479 flashingLED 0;
#X obj 144 34 inlet;
#X text 197 102 bang every 'x' ms;
#X obj 122 151 metro;
#X obj 196 392 outlet;
#X obj 212 298 spigot;
#X floatatom 255 270 5 0 0 0 - - -, f 5;
#X obj 133 206 delay 100;
#X msg 151 243 1;
#X msg 185 243 0;
#X obj 364 87 != 0;
#X obj 358 113 spigot;
#X floatatom 200 362 5 0 0 0 - - -, f 5;
#X floatatom 152 129 5 0 0 0 - - -, f 5;
#X msg 358 135 0;
#X text 411 111 Kill When Off;
#X obj 92 187 bng 15 250 50 0 empty empty empty 17 7 0 10 -262144 -1
-1;
#X text 216 206 Turn off for short Time;
#X obj 154 77 r load;
#X msg 155 101 500;
#X connect 0 0 2 0;
#X connect 0 0 9 0;
#X connect 0 0 5 0;
#X connect 2 0 6 0;
#X connect 2 0 8 0;
#X connect 2 0 15 0;
#X connect 4 0 11 0;
#X connect 5 0 4 1;
#X connect 6 0 7 0;
#X connect 7 0 4 0;
#X connect 8 0 4 0;
#X connect 9 0 10 0;
#X connect 9 0 10 1;
#X connect 10 0 13 0;
#X connect 11 0 3 0;
#X connect 12 0 2 1;
#X connect 13 0 11 0;
#X connect 17 0 18 0;
#X connect 18 0 12 0;
#X restore 177 120 pd flashingLED;
#X floatatom 942 168 5 0 0 0 - - -, f 5;
#X obj 918 51 r RecInProgress;
#X obj 945 91 r RecFinished;
#X msg 918 73 1;
#X obj 573 41 r armRecording;
#X obj 586 63 r RecFinished;
#X obj 877 28 r prepRecording;
#X msg 874 74 0;
#X connect 1 0 21 0;
#X connect 3 0 14 0;
#X connect 4 0 14 0;
#X connect 4 0 12 0;
#X connect 5 0 6 0;
#X connect 8 0 7 0;
#X connect 9 0 0 0;
#X connect 10 0 20 0;
#X connect 13 0 12 0;
#X connect 14 0 13 1;
#X connect 15 0 16 0;
#X connect 15 0 18 0;
#X connect 16 0 17 0;
#X connect 17 0 19 0;
#X connect 18 0 19 0;
#X connect 19 0 13 0;
#X connect 20 0 11 0;
#X connect 21 0 2 0;
#X connect 22 0 24 0;
#X connect 23 0 21 0;
#X connect 24 0 2 0;
#X connect 25 0 3 0;
#X connect 26 0 4 0;
#X connect 27 0 28 0;
#X connect 28 0 2 0;
#X restore 337 141 pd LEDs;
#X text 58 409 ------------------------ EFFECTS ----------------------
, f 57;
#X obj 58 432 tgl 30 0 holdToPlay holdToPlay HOLD_TO_PLAY_(TOP_ROW_LATCH)
35 15 0 14 -262144 -1 -1 0 1;
#X obj 643 253 hsl 200 30 0 0.98 0 0 echoFeedback echoFeedback Echo_Feedback
-2 -8 0 10 -262144 -1 -1 12184 1;
#X obj 642 202 hsl 200 30 0 4000 0 0 echoTime echoTime Echo_Time -2
-8 0 10 -262144 -1 -1 0 1;
#X obj 642 299 hsl 200 30 0 1 0 0 echoMix echoMix Echo_Mix -2 -8 0
10 -262144 -1 -1 9950 1;
#X obj 854 252 nbx 4 30 0 10 0 0 echoFeedback echoFeedback empty 0
-8 0 16 -262144 -1 -1 0.6 256;
#X obj 852 299 nbx 4 30 0 10 0 0 echoMix echoMix empty 0 -8 0 16 -262144
-1 -1 0.5 256;
#X obj 854 201 nbx 4 30 40 4000 1 0 echoTime echoTime empty 0 -8 0
16 -262144 -1 -1 40 256;
#X obj 789 357 nbx 4 30 0 100000 0 0 delayTime delayTime Stereo_Delay
0 -8 0 16 -262144 -1 -1 0 256;
#X obj 16 85 del 5000;
#X obj 62 626 tgl 30 1 singleLoop singleLoop SINGLE_LOOP_AT_A_TIME
35 15 0 14 -262144 -1 -1 0 1;
#X obj 61 583 tgl 30 1 singleSample singleSample SINGLE_SAMPLE_AT_A_TIME
35 15 0 14 -262144 -1 -1 1 1;
#N canvas 143 259 450 593 cc4 1;
#X obj 163 140 /;
#X floatatom 82 275 5 0 0 0 - - -, f 5;
#X floatatom 128 89 5 0 0 0 - - -, f 5;
#X obj 261 455 r load;
#X msg 260 478 1;
#X floatatom 91 156 5 0 0 0 - - -, f 5;
#X floatatom 266 241 5 0 0 0 - - -, f 5;
#X obj 127 373 spigot;
#X obj 169 415 spigot;
#X floatatom 175 472 5 0 0 0 - - -, f 5;
#X msg 99 350 1;
#X obj 300 347 < 1;
#X obj 281 386 spigot;
#X obj 24 394 spigot;
#X obj 57 360 > 1;
#X obj 146 334 <= 1;
#X obj 210 334 >= 1;
#X text 73 540 This creates deadband and good positive negative range
;
#X obj 187 507 s effectSpeed;
#X obj 141 43 r CC4;
#X obj 347 41 vsl 15 128 0 10000 0 0 empty empty empty 0 -9 0 10 -262144
-1 -1 5200 1;
#X msg 189 104 5000;
#X obj 223 158 + 0.15;
#X obj 130 215 - 0.15;
#X connect 0 0 5 0;
#X connect 0 0 22 0;
#X connect 0 0 23 0;
#X connect 1 0 13 0;
#X connect 1 0 14 0;
#X connect 1 0 15 0;
#X connect 2 0 0 0;
#X connect 3 0 4 0;
#X connect 4 0 18 0;
#X connect 6 0 12 0;
#X connect 6 0 11 0;
#X connect 6 0 16 0;
#X connect 7 0 8 0;
#X connect 8 0 9 0;
#X connect 9 0 18 0;
#X connect 10 0 7 0;
#X connect 11 0 12 1;
#X connect 12 0 9 0;
#X connect 13 0 9 0;
#X connect 14 0 13 1;
#X connect 15 0 7 1;
#X connect 15 0 10 0;
#X connect 16 0 8 1;
#X connect 19 0 2 0;
#X connect 19 0 21 0;
#X connect 20 0 2 0;
#X connect 20 0 21 0;
#X connect 21 0 0 1;
#X connect 22 0 6 0;
#X connect 23 0 1 0;
#X restore 160 16 pd cc4 - Upper Row Sample Speed;
#N canvas 1256 370 450 593 cc3 1;
#X obj 163 140 /;
#X floatatom 82 275 5 0 0 0 - - -, f 5;
#X floatatom 128 89 5 0 0 0 - - -, f 5;
#X obj 261 455 r load;
#X msg 260 478 1;
#X floatatom 91 156 5 0 0 0 - - -, f 5;
#X floatatom 266 241 5 0 0 0 - - -, f 5;
#X obj 127 373 spigot;
#X obj 169 415 spigot;
#X floatatom 175 472 5 0 0 0 - - -, f 5;
#X msg 99 350 1;
#X obj 300 347 < 1;
#X obj 281 386 spigot;
#X obj 24 394 spigot;
#X obj 57 360 > 1;
#X obj 146 334 <= 1;
#X obj 210 334 >= 1;
#X text 73 540 This creates deadband and good positive negative range
;
#X obj 188 507 s playbackSpeed;
#X obj 141 43 r CC3;
#X msg 189 104 5000;
#X obj 218 162 + 0.15;
#X obj 124 246 - 0.15;
#X connect 0 0 5 0;
#X connect 0 0 21 0;
#X connect 0 0 22 0;
#X connect 1 0 13 0;
#X connect 1 0 14 0;
#X connect 1 0 15 0;
#X connect 2 0 0 0;
#X connect 3 0 4 0;
#X connect 4 0 18 0;
#X connect 6 0 12 0;
#X connect 6 0 11 0;
#X connect 6 0 16 0;
#X connect 7 0 8 0;
#X connect 8 0 9 0;
#X connect 9 0 18 0;
#X connect 10 0 7 0;
#X connect 11 0 12 1;
#X connect 12 0 9 0;
#X connect 13 0 9 0;
#X connect 14 0 13 1;
#X connect 15 0 7 1;
#X connect 15 0 10 0;
#X connect 16 0 8 1;
#X connect 19 0 2 0;
#X connect 19 0 20 0;
#X connect 20 0 0 1;
#X connect 21 0 6 0;
#X connect 22 0 1 0;
#X restore 159 36 pd cc3 - Lower Row Sample Speed;
#N canvas 321 117 541 761 cc2 1;
#X text 76 605 This creates deadband and good positive negative range
;
#X obj 179 64 r CC2;
#X obj 186 130 / 10000;
#X obj 191 563 s Bank2Volume;
#X obj 273 41 hsl 128 15 0 10000 0 0 empty empty empty -2 -8 0 10 -262144
-1 -1 12700 1;
#X floatatom 251 188 5 0 0 0 - - -, f 5;
#X floatatom 207 392 8 0 0 0 - - -, f 8;
#X floatatom 209 341 8 0 0 0 - - -, f 8;
#X obj 191 316 expr pow(2 \, ($f1 * 3));
#X obj 191 366 expr ($f1 - 0.7) / 7;
#X connect 1 0 2 0;
#X connect 2 0 5 0;
#X connect 2 0 8 0;
#X connect 4 0 2 0;
#X connect 8 0 7 0;
#X connect 8 0 9 0;
#X connect 9 0 6 0;
#X connect 9 0 3 0;
#X restore 157 56 pd cc2 - Bank2 Volume;
#N canvas 882 219 506 394 cc1 1;
#X text 148 351 Volume Adj;
#X obj 194 74 / 10000;
#X obj 222 20 r CC1;
#X obj 183 298 s Bank1Volume;
#X floatatom 233 225 8 0 0 0 - - -, f 8;
#X floatatom 235 174 8 0 0 0 - - -, f 8;
#X obj 217 149 expr pow(2 \, ($f1 * 3));
#X obj 217 199 expr ($f1 - 0.7) / 7;
#X connect 1 0 6 0;
#X connect 2 0 1 0;
#X connect 6 0 5 0;
#X connect 6 0 7 0;
#X connect 7 0 4 0;
#X connect 7 0 3 0;
#X restore 158 76 pd cc1 - Bank1 Volume;
#X connect 5 0 15 0;
#X connect 6 0 9 0;
#X connect 6 0 64 0;
#X connect 7 0 8 0;
#X connect 10 0 9 0;
#X connect 13 0 11 0;
#X connect 14 0 12 0;
#X connect 15 0 13 0;
#X connect 15 1 14 0;
#X connect 64 0 7 0;
